<svg xmlns="http://www.w3.org/2000/svg" xmlns:xlink="http://www.w3.org/1999/xlink" contentStyleType="text/css" data-diagram-type="SEQUENCE" height="901px" preserveAspectRatio="none" style="width:972px;height:901px;background:#FFFFFF;" version="1.1" viewBox="0 0 972 901" width="972px" zoomAndPan="magnify"><?plantuml 1.2026.6?><defs/><g><g class="title" data-source-line="1"><text fill="#000000" font-family="sans-serif" font-size="14" font-weight="700" lengthAdjust="spacing" textLength="140.5332" x="412.6953" y="27.9951">Upload My Avatar</text></g><g><title>UserController</title><rect fill="#FFFFFF" height="622.2656" style="stroke:#181818;stroke-width:1;" width="10" x="235.3281" y="164.8594"/></g><g><title>UserService</title><rect fill="#FFFFFF" height="548.8672" style="stroke:#181818;stroke-width:1;" width="10" x="430.2114" y="193.9922"/></g><g><title>UserRepository</title><rect fill="#FFFFFF" height="29.1328" style="stroke:#181818;stroke-width:1;" width="10" x="639.1719" y="258.2578"/></g><g><title>CloudinaryService</title><rect fill="#FFFFFF" height="53.2656" style="stroke:#181818;stroke-width:1;" width="10" x="776.2202" y="413.7266"/></g><g><title>CloudinaryService</title><rect fill="#FFFFFF" height="35.1328" style="stroke:#181818;stroke-width:1;" width="10" x="776.2202" y="664.5938"/></g><rect fill="none" height="499.7344" style="stroke:#000000;stroke-width:1.5;" width="946.9238" x="10" y="302.3906"/><rect fill="none" height="366.3984" style="stroke:#000000;stroke-width:1.5;" width="926.9238" x="20" y="428.7266"/><rect fill="none" height="88.3984" style="stroke:#000000;stroke-width:1.5;" width="560.5381" x="376.3857" y="626.3281"/><g class="participant-lifeline" data-entity-uid="part1" data-qualified-name="User" data-source-line="3" id="part1-lifeline"><g><title>User</title><rect fill="#000000" fill-opacity="0.00000" height="700.5313" width="8" x="44.9551" y="118.5938"/><line style="stroke:#181818;stroke-width:0.5;stroke-dasharray:5,5;" x1="48" x2="48" y1="118.5938" y2="819.125"/></g></g><g class="participant-lifeline" data-entity-uid="part2" data-qualified-name="UserController" data-source-line="5" id="part2-lifeline"><g><title>UserController</title><rect fill="#000000" fill-opacity="0.00000" height="700.5313" width="8" x="236.3281" y="118.5938"/><line style="stroke:#181818;stroke-width:0.5;stroke-dasharray:5,5;" x1="239.7866" x2="239.7866" y1="118.5938" y2="819.125"/></g></g><g class="participant-lifeline" data-entity-uid="part3" data-qualified-name="UserService" data-source-line="6" id="part3-lifeline"><g><title>UserService</title><rect fill="#000000" fill-opacity="0.00000" height="700.5313" width="8" x="431.2114" y="118.5938"/><line style="stroke:#181818;stroke-width:0.5;stroke-dasharray:5,5;" x1="434.3857" x2="434.3857" y1="118.5938" y2="819.125"/></g></g><g class="participant-lifeline" data-entity-uid="part4" data-qualified-name="UserRepository" data-source-line="7" id="part4-lifeline"><g><title>UserRepository</title><rect fill="#000000" fill-opacity="0.00000" height="700.5313" width="8" x="640.1719" y="118.5938"/><line style="stroke:#181818;stroke-width:0.5;stroke-dasharray:5,5;" x1="643.6807" x2="643.6807" y1="118.5938" y2="819.125"/></g></g><g class="participant-lifeline" data-entity-uid="part5" data-qualified-name="CloudinaryService" data-source-line="8" id="part5-lifeline"><g><title>CloudinaryService</title><rect fill="#000000" fill-opacity="0.00000" height="700.5313" width="8" x="777.2202" y="118.5938"/><line style="stroke:#181818;stroke-width:0.5;stroke-dasharray:5,5;" x1="780.6631" x2="780.6631" y1="118.5938" y2="819.125"/></g></g><g class="participant participant-head" data-entity-uid="part1" data-qualified-name="User" data-source-line="3" id="part1-head"><text fill="#000000" font-family="sans-serif" font-size="14" lengthAdjust="spacing" textLength="31.9102" x="30" y="115.292">User</text><ellipse cx="48.9551" cy="50.7969" fill="#E2E2F0" rx="8" ry="8" style="stroke:#181818;stroke-width:0.5;"/><path d="M48.9551,58.7969 L48.9551,85.7969 M35.9551,66.7969 L61.9551,66.7969 M48.9551,85.7969 L35.9551,100.7969 M48.9551,85.7969 L61.9551,100.7969" fill="none" style="stroke:#181818;stroke-width:0.5;"/></g><g class="participant participant-tail" data-entity-uid="part1" data-qualified-name="User" data-source-line="3" id="part1-tail"><text fill="#000000" font-family="sans-serif" font-size="14" lengthAdjust="spacing" textLength="31.9102" x="30" y="831.1201">User</text><ellipse cx="48.9551" cy="842.9219" fill="#E2E2F0" rx="8" ry="8" style="stroke:#181818;stroke-width:0.5;"/><path d="M48.9551,850.9219 L48.9551,877.9219 M35.9551,858.9219 L61.9551,858.9219 M48.9551,877.9219 L35.9551,892.9219 M48.9551,877.9219 L61.9551,892.9219" fill="none" style="stroke:#181818;stroke-width:0.5;"/></g><g class="participant participant-head" data-entity-uid="part2" data-qualified-name="UserController" data-source-line="5" id="part2-head"><rect fill="#E2E2F0" height="30.2969" rx="2.5" ry="2.5" style="stroke:#181818;stroke-width:0.5;" width="115.083" x="182.7866" y="87.2969"/><text fill="#000000" font-family="sans-serif" font-size="14" lengthAdjust="spacing" textLength="101.083" x="189.7866" y="107.292">UserController</text></g><g class="participant participant-tail" data-entity-uid="part2" data-qualified-name="UserController" data-source-line="5" id="part2-tail"><rect fill="#E2E2F0" height="30.2969" rx="2.5" ry="2.5" style="stroke:#181818;stroke-width:0.5;" width="115.083" x="182.7866" y="818.125"/><text fill="#000000" font-family="sans-serif" font-size="14" lengthAdjust="spacing" textLength="101.083" x="189.7866" y="838.1201">UserController</text></g><g class="participant participant-head" data-entity-uid="part3" data-qualified-name="UserService" data-source-line="6" id="part3-head"><rect fill="#E2E2F0" height="30.2969" rx="2.5" ry="2.5" style="stroke:#181818;stroke-width:0.5;" width="97.6514" x="386.3857" y="87.2969"/><text fill="#000000" font-family="sans-serif" font-size="14" lengthAdjust="spacing" textLength="83.6514" x="393.3857" y="107.292">UserService</text></g><g class="participant participant-tail" data-entity-uid="part3" data-qualified-name="UserService" data-source-line="6" id="part3-tail"><rect fill="#E2E2F0" height="30.2969" rx="2.5" ry="2.5" style="stroke:#181818;stroke-width:0.5;" width="97.6514" x="386.3857" y="818.125"/><text fill="#000000" font-family="sans-serif" font-size="14" lengthAdjust="spacing" textLength="83.6514" x="393.3857" y="838.1201">UserService</text></g><g class="participant participant-head" data-entity-uid="part4" data-qualified-name="UserRepository" data-source-line="7" id="part4-head"><text fill="#000000" font-family="sans-serif" font-size="14" lengthAdjust="spacing" textLength="106.9824" x="587.6807" y="115.292">UserRepository</text><path d="M626.1719,66.2969 C626.1719,56.2969 644.1719,56.2969 644.1719,56.2969 C644.1719,56.2969 662.1719,56.2969 662.1719,66.2969 L662.1719,92.2969 C662.1719,102.2969 644.1719,102.2969 644.1719,102.2969 C644.1719,102.2969 626.1719,102.2969 626.1719,92.2969 L626.1719,66.2969" fill="#E2E2F0" style="stroke:#181818;stroke-width:0.5;"/><path d="M626.1719,66.2969 C626.1719,76.2969 644.1719,76.2969 644.1719,76.2969 C644.1719,76.2969 662.1719,76.2969 662.1719,66.2969" fill="none" style="stroke:#181818;stroke-width:0.5;"/></g><g class="participant participant-tail" data-entity-uid="part4" data-qualified-name="UserRepository" data-source-line="7" id="part4-tail"><text fill="#000000" font-family="sans-serif" font-size="14" lengthAdjust="spacing" textLength="106.9824" x="587.6807" y="831.1201">UserRepository</text><path d="M626.1719,844.4219 C626.1719,834.4219 644.1719,834.4219 644.1719,834.4219 C644.1719,834.4219 662.1719,834.4219 662.1719,844.4219 L662.1719,870.4219 C662.1719,880.4219 644.1719,880.4219 644.1719,880.4219 C644.1719,880.4219 626.1719,880.4219 626.1719,870.4219 L626.1719,844.4219" fill="#E2E2F0" style="stroke:#181818;stroke-width:0.5;"/><path d="M626.1719,844.4219 C626.1719,854.4219 644.1719,854.4219 644.1719,854.4219 C644.1719,854.4219 662.1719,854.4219 662.1719,844.4219" fill="none" style="stroke:#181818;stroke-width:0.5;"/></g><g class="participant participant-head" data-entity-uid="part5" data-qualified-name="CloudinaryService" data-source-line="8" id="part5-head"><rect fill="#E2E2F0" height="30.2969" rx="2.5" ry="2.5" style="stroke:#181818;stroke-width:0.5;" width="141.1143" x="710.6631" y="87.2969"/><text fill="#000000" font-family="sans-serif" font-size="14" lengthAdjust="spacing" textLength="127.1143" x="717.6631" y="107.292">CloudinaryService</text></g><g class="participant participant-tail" data-entity-uid="part5" data-qualified-name="CloudinaryService" data-source-line="8" id="part5-tail"><rect fill="#E2E2F0" height="30.2969" rx="2.5" ry="2.5" style="stroke:#181818;stroke-width:0.5;" width="141.1143" x="710.6631" y="818.125"/><text fill="#000000" font-family="sans-serif" font-size="14" lengthAdjust="spacing" textLength="127.1143" x="717.6631" y="838.1201">CloudinaryService</text></g><g><title>UserController</title><rect fill="#FFFFFF" height="622.2656" style="stroke:#181818;stroke-width:1;" width="10" x="235.3281" y="164.8594"/></g><g><title>UserService</title><rect fill="#FFFFFF" height="548.8672" style="stroke:#181818;stroke-width:1;" width="10" x="430.2114" y="193.9922"/></g><g><title>UserRepository</title><rect fill="#FFFFFF" height="29.1328" style="stroke:#181818;stroke-width:1;" width="10" x="639.1719" y="258.2578"/></g><g><title>CloudinaryService</title><rect fill="#FFFFFF" height="53.2656" style="stroke:#181818;stroke-width:1;" width="10" x="776.2202" y="413.7266"/></g><g><title>CloudinaryService</title><rect fill="#FFFFFF" height="35.1328" style="stroke:#181818;stroke-width:1;" width="10" x="776.2202" y="664.5938"/></g><g class="message" data-entity-1="part1" data-entity-2="part2" data-source-line="10" id="msg1"><polygon fill="#181818" points="223.3281,160.8594,233.3281,164.8594,223.3281,168.8594,227.3281,164.8594" style="stroke:#181818;stroke-width:1;stroke-linejoin:miter;stroke-miterlimit:10;"/><line style="stroke:#181818;stroke-width:1;" x1="48.9551" x2="229.3281" y1="164.8594" y2="164.8594"/><text fill="#000000" font-family="sans-serif" font-size="13" lengthAdjust="spacing" textLength="158.6216" x="55.9551" y="144.6606">PATCH /users/me/avatar</text><text fill="#000000" font-family="sans-serif" font-size="13" lengthAdjust="spacing" textLength="81.1357" x="55.9551" y="159.7935">MultipartFile</text></g><g class="message" data-entity-1="part2" data-entity-2="part3" data-source-line="13" id="msg2"><polygon fill="#181818" points="418.2114,189.9922,428.2114,193.9922,418.2114,197.9922,422.2114,193.9922" style="stroke:#181818;stroke-width:1;stroke-linejoin:miter;stroke-miterlimit:10;"/><line style="stroke:#181818;stroke-width:1;" x1="245.3281" x2="424.2114" y1="193.9922" y2="193.9922"/><text fill="#000000" font-family="sans-serif" font-size="13" lengthAdjust="spacing" textLength="165.8833" x="252.3281" y="188.9263">uploadAvatar(userId, file)</text></g><path d="M374,206.9922 L374,231.9922 L495,231.9922 L495,216.9922 L485,206.9922 L374,206.9922" fill="#FEFFDD" style="stroke:#181818;stroke-width:0.5;"/><path d="M485,206.9922 L485,216.9922 L495,216.9922 L485,206.9922" fill="#FEFFDD" style="stroke:#181818;stroke-width:0.5;"/><text fill="#000000" font-family="sans-serif" font-size="13" lengthAdjust="spacing" textLength="100.8579" x="380" y="224.0591">@Transactional</text><g class="message" data-entity-1="part3" data-entity-2="part4" data-source-line="20" id="msg3"><polygon fill="#181818" points="627.1719,254.2578,637.1719,258.2578,627.1719,262.2578,631.1719,258.2578" style="stroke:#181818;stroke-width:1;stroke-linejoin:miter;stroke-miterlimit:10;"/><line style="stroke:#181818;stroke-width:1;" x1="440.2114" x2="633.1719" y1="258.2578" y2="258.2578"/><text fill="#000000" font-family="sans-serif" font-size="13" lengthAdjust="spacing" textLength="103.9619" x="447.2114" y="253.1919">findById(userId)</text></g><g class="message" data-entity-1="part4" data-entity-2="part3" data-source-line="22" id="msg4"><polygon fill="#181818" points="451.2114,283.3906,441.2114,287.3906,451.2114,291.3906,447.2114,287.3906" style="stroke:#181818;stroke-width:1;stroke-linejoin:miter;stroke-miterlimit:10;"/><line style="stroke:#181818;stroke-width:1;stroke-dasharray:2,2;" x1="445.2114" x2="643.1719" y1="287.3906" y2="287.3906"/><text fill="#000000" font-family="sans-serif" font-size="13" lengthAdjust="spacing" textLength="110.6523" x="457.2114" y="282.3247">k&#7871;t qu&#7843; t&#236;m ki&#7871;m</text></g><path d="M10,302.3906 L74.4429,302.3906 L74.4429,309.5234 L64.4429,319.5234 L10,319.5234 L10,302.3906" fill="#EEEEEE" style="stroke:#000000;stroke-width:1.5;"/><rect fill="none" height="499.7344" style="stroke:#000000;stroke-width:1.5;" width="946.9238" x="10" y="302.3906"/><text fill="#000000" font-family="sans-serif" font-size="13" font-weight="700" lengthAdjust="spacing" textLength="19.4429" x="25" y="315.4575">alt</text><text fill="#000000" font-family="sans-serif" font-size="11" font-weight="700" lengthAdjust="spacing" textLength="125.415" x="89.4429" y="314.6011">[User kh&#244;ng t&#7891;n t&#7841;i]</text><g class="message" data-entity-1="part3" data-entity-2="part2" data-source-line="26" id="msg5"><polygon fill="#181818" points="256.3281,336.6563,246.3281,340.6563,256.3281,344.6563,252.3281,340.6563" style="stroke:#181818;stroke-width:1;stroke-linejoin:miter;stroke-miterlimit:10;"/><line style="stroke:#181818;stroke-width:1;stroke-dasharray:2,2;" x1="250.3281" x2="429.2114" y1="340.6563" y2="340.6563"/><text fill="#000000" font-family="sans-serif" font-size="13" lengthAdjust="spacing" textLength="127.1436" x="262.3281" y="335.5903">NotFoundException</text></g><g class="message" data-entity-1="part2" data-entity-2="part1" data-source-line="27" id="msg6"><polygon fill="#181818" points="59.9551,365.7891,49.9551,369.7891,59.9551,373.7891,55.9551,369.7891" style="stroke:#181818;stroke-width:1;stroke-linejoin:miter;stroke-miterlimit:10;"/><line style="stroke:#181818;stroke-width:1;stroke-dasharray:2,2;" x1="53.9551" x2="234.3281" y1="369.7891" y2="369.7891"/><text fill="#000000" font-family="sans-serif" font-size="13" lengthAdjust="spacing" textLength="96.0146" x="65.9551" y="364.7231">404 Not Found</text></g><line style="stroke:#000000;stroke-width:1;stroke-dasharray:2,2;" x1="10" x2="956.9238" y1="378.7891" y2="378.7891"/><text fill="#000000" font-family="sans-serif" font-size="11" font-weight="700" lengthAdjust="spacing" textLength="83.1768" x="15" y="388.9995">[User t&#7891;n t&#7841;i]</text><g class="message" data-entity-1="part3" data-entity-2="part5" data-source-line="30" id="msg7"><polygon fill="#181818" points="764.2202,409.7266,774.2202,413.7266,764.2202,417.7266,768.2202,413.7266" style="stroke:#181818;stroke-width:1;stroke-linejoin:miter;stroke-miterlimit:10;"/><line style="stroke:#181818;stroke-width:1;" x1="440.2114" x2="770.2202" y1="413.7266" y2="413.7266"/><text fill="#000000" font-family="sans-serif" font-size="13" lengthAdjust="spacing" textLength="130.3618" x="447.2114" y="408.6606">upload(file, options)</text></g><path d="M20,428.7266 L84.4429,428.7266 L84.4429,435.8594 L74.4429,445.8594 L20,445.8594 L20,428.7266" fill="#EEEEEE" style="stroke:#000000;stroke-width:1.5;"/><rect fill="none" height="366.3984" style="stroke:#000000;stroke-width:1.5;" width="926.9238" x="20" y="428.7266"/><text fill="#000000" font-family="sans-serif" font-size="13" font-weight="700" lengthAdjust="spacing" textLength="19.4429" x="35" y="441.7935">alt</text><text fill="#000000" font-family="sans-serif" font-size="11" font-weight="700" lengthAdjust="spacing" textLength="105.9824" x="99.4429" y="440.937">[Upload th&#7845;t b&#7841;i]</text><g class="message" data-entity-1="part5" data-entity-2="part3" data-source-line="34" id="msg8"><polygon fill="#181818" points="451.2114,462.9922,441.2114,466.9922,451.2114,470.9922,447.2114,466.9922" style="stroke:#181818;stroke-width:1;stroke-linejoin:miter;stroke-miterlimit:10;"/><line style="stroke:#181818;stroke-width:1;stroke-dasharray:2,2;" x1="445.2114" x2="780.2202" y1="466.9922" y2="466.9922"/><text fill="#000000" font-family="sans-serif" font-size="13" lengthAdjust="spacing" textLength="78.2729" x="457.2114" y="461.9263">IOException</text></g><g class="message" data-entity-1="part3" data-entity-2="part2" data-source-line="37" id="msg9"><polygon fill="#181818" points="256.3281,492.125,246.3281,496.125,256.3281,500.125,252.3281,496.125" style="stroke:#181818;stroke-width:1;stroke-linejoin:miter;stroke-miterlimit:10;"/><line style="stroke:#181818;stroke-width:1;stroke-dasharray:2,2;" x1="250.3281" x2="429.2114" y1="496.125" y2="496.125"/><text fill="#000000" font-family="sans-serif" font-size="13" lengthAdjust="spacing" textLength="119.0884" x="262.3281" y="491.0591">RuntimeException</text></g><g class="message" data-entity-1="part2" data-entity-2="part1" data-source-line="38" id="msg10"><polygon fill="#181818" points="59.9551,521.2578,49.9551,525.2578,59.9551,529.2578,55.9551,525.2578" style="stroke:#181818;stroke-width:1;stroke-linejoin:miter;stroke-miterlimit:10;"/><line style="stroke:#181818;stroke-width:1;stroke-dasharray:2,2;" x1="53.9551" x2="234.3281" y1="525.2578" y2="525.2578"/><text fill="#000000" font-family="sans-serif" font-size="13" lengthAdjust="spacing" textLength="162.373" x="65.9551" y="520.1919">500 Internal Server Error</text></g><line style="stroke:#000000;stroke-width:1;stroke-dasharray:2,2;" x1="20" x2="946.9238" y1="534.2578" y2="534.2578"/><text fill="#000000" font-family="sans-serif" font-size="11" font-weight="700" lengthAdjust="spacing" textLength="127.1016" x="25" y="544.4683">[Upload th&#224;nh c&#244;ng]</text><g class="message" data-entity-1="part5" data-entity-2="part3" data-source-line="41" id="msg11"><polygon fill="#181818" points="451.2114,565.1953,441.2114,569.1953,451.2114,573.1953,447.2114,569.1953" style="stroke:#181818;stroke-width:1;stroke-linejoin:miter;stroke-miterlimit:10;"/><line style="stroke:#181818;stroke-width:1;stroke-dasharray:2,2;" x1="445.2114" x2="780.2202" y1="569.1953" y2="569.1953"/><text fill="#000000" font-family="sans-serif" font-size="13" lengthAdjust="spacing" textLength="156.292" x="457.2114" y="564.1294">CloudinaryUploadResult</text></g><g class="message" data-entity-1="part3" data-entity-2="part3" data-source-line="44" id="msg12"><line style="stroke:#181818;stroke-width:1;" x1="440.2114" x2="482.2114" y1="598.3281" y2="598.3281"/><line style="stroke:#181818;stroke-width:1;" x1="482.2114" x2="482.2114" y1="598.3281" y2="611.3281"/><line style="stroke:#181818;stroke-width:1;" x1="441.2114" x2="482.2114" y1="611.3281" y2="611.3281"/><polygon fill="#181818" points="451.2114,607.3281,441.2114,611.3281,451.2114,615.3281,447.2114,611.3281" style="stroke:#181818;stroke-width:1;stroke-linejoin:miter;stroke-miterlimit:10;"/><text fill="#000000" font-family="sans-serif" font-size="13" lengthAdjust="spacing" textLength="174.9604" x="447.2114" y="593.2622">setAvatarPublicId(publicId)</text></g><path d="M376.3857,626.3281 L445.8369,626.3281 L445.8369,633.4609 L435.8369,643.4609 L376.3857,643.4609 L376.3857,626.3281" fill="#EEEEEE" style="stroke:#000000;stroke-width:1.5;"/><rect fill="none" height="88.3984" style="stroke:#000000;stroke-width:1.5;" width="560.5381" x="376.3857" y="626.3281"/><text fill="#000000" font-family="sans-serif" font-size="13" font-weight="700" lengthAdjust="spacing" textLength="24.4512" x="391.3857" y="639.395">opt</text><text fill="#000000" font-family="sans-serif" font-size="11" font-weight="700" lengthAdjust="spacing" textLength="87.8174" x="460.8369" y="638.5386">[C&#243; avatar c&#361;]</text><g class="message" data-entity-1="part3" data-entity-2="part5" data-source-line="48" id="msg13"><line style="stroke:#181818;stroke-width:1;" x1="774.2202" x2="764.2202" y1="664.5938" y2="660.5938"/><line style="stroke:#181818;stroke-width:1;" x1="774.2202" x2="764.2202" y1="664.5938" y2="668.5938"/><line style="stroke:#181818;stroke-width:1;" x1="440.2114" x2="775.2202" y1="664.5938" y2="664.5938"/><text fill="#000000" font-family="sans-serif" font-size="13" lengthAdjust="spacing" textLength="160.4497" x="447.2114" y="659.5278">deleteAsync(oldPublicId)</text></g><g class="message" data-entity-1="part5" data-entity-2="part5" data-source-line="50" id="msg14"><line style="stroke:#181818;stroke-width:1;" x1="786.2202" x2="828.2202" y1="698.7266" y2="698.7266"/><line style="stroke:#181818;stroke-width:1;" x1="828.2202" x2="828.2202" y1="698.7266" y2="711.7266"/><line style="stroke:#181818;stroke-width:1;" x1="781.2202" x2="828.2202" y1="711.7266" y2="711.7266"/><polygon fill="#181818" points="791.2202,707.7266,781.2202,711.7266,791.2202,715.7266,787.2202,711.7266" style="stroke:#181818;stroke-width:1;stroke-linejoin:miter;stroke-miterlimit:10;"/><text fill="#000000" font-family="sans-serif" font-size="13" lengthAdjust="spacing" textLength="121.7036" x="793.2202" y="693.6606">delete(oldPublicId)</text></g><g class="message" data-entity-1="part3" data-entity-2="part2" data-source-line="54" id="msg15"><polygon fill="#181818" points="256.3281,738.8594,246.3281,742.8594,256.3281,746.8594,252.3281,742.8594" style="stroke:#181818;stroke-width:1;stroke-linejoin:miter;stroke-miterlimit:10;"/><line style="stroke:#181818;stroke-width:1;stroke-dasharray:2,2;" x1="250.3281" x2="434.2114" y1="742.8594" y2="742.8594"/><text fill="#000000" font-family="sans-serif" font-size="13" lengthAdjust="spacing" textLength="156.292" x="262.3281" y="737.7935">CloudinaryUploadResult</text></g><g class="message" data-entity-1="part2" data-entity-2="part1" data-source-line="57" id="msg16"><polygon fill="#181818" points="59.9551,783.125,49.9551,787.125,59.9551,791.125,55.9551,787.125" style="stroke:#181818;stroke-width:1;stroke-linejoin:miter;stroke-miterlimit:10;"/><line style="stroke:#181818;stroke-width:1;stroke-dasharray:2,2;" x1="53.9551" x2="239.3281" y1="787.125" y2="787.125"/><text fill="#000000" font-family="sans-serif" font-size="13" lengthAdjust="spacing" textLength="47.7026" x="65.9551" y="766.9263">200 OK</text><text fill="#000000" font-family="sans-serif" font-size="13" lengthAdjust="spacing" textLength="60.5059" x="65.9551" y="782.0591">avatarUrl</text></g><?plantuml-src fLIzRXD14ExlAQR3bXBPGg6XY31M0XOAiKpSfLdVJkALrxl7tfw57u82KQK38GeaKa5b5oaS7kJUXDcxy_b-R9E8BLPtipFVDpFVx5fX9S8ma9fnE9j3PyOiCvx7VAiD34Eaxu0PAtmHC6KJIrShQxIKT5OzUeTc9dpqEA6CM8Y9SO213WNXpKl-NQaZBXGpytMKvxpXyBZ20i-XtxdelePMHFQmDSKMIzAyL6UHjCA1dWg9Bcb11rZDqglWPGmPBS57IVrfxGr7qkC7S4MGpJ9cdgZIPD4pD2NpYml3LEWYj6BIGyN1EQRyQxQCVDCKuhyIYh-SztZ6NM4jzAyIULYhP18lxYoyZ-B5Dx2hdrEO2B9CFOwx83qcK-rWCbxzLjTWu-LdHVlYg_20LYdvRUAyrVPKHugVVF0nSBNdOSMUPv7aVzG-SZ6G17aeip4f4TUPZ-i3aolNS5eTW4xOmsOIdDUxPSwISrTsElTs72--MnZb9RjLPwjtktTUhjcjGgTtC3-egOD8MJ75ElxklZvhjw6dB1eQFd3WP3qnHfkKDctqkkBL5pK6tmd-g8etFYdI04EwWlzJV9KXH9jUn7uqaiAdIn5a7yqD0YaDtTKlIDy1yF_yo8_SUWAlukL7uHGbNUy_kS6wfh_b3TsGrQq_Xh4ciRUyGOdpZGyoNjm69SnoqjkdaQD4Yvrmhlo6bhoV9ru4sjEXejiMDVQHxkRRgydQYTwgHmpdmwUWz6h-UuIVqWYVlxbKgQv38tTX5bxtF7st_GK0?></g></svg>