<svg xmlns="http://www.w3.org/2000/svg" xmlns:xlink="http://www.w3.org/1999/xlink" contentStyleType="text/css" data-diagram-type="CLASS" height="711px" preserveAspectRatio="none" style="width:469px;height:711px;background:#FFFFFF;" version="1.1" viewBox="0 0 469 711" width="469px" zoomAndPan="magnify"><?plantuml 1.2026.6?><defs/><g><g class="title" data-source-line="1"><text fill="#000000" font-family="sans-serif" font-size="14" font-weight="700" lengthAdjust="spacing" textLength="153.7539" x="154.3711" y="22.9951">User Domain Model</text></g><!--class BaseModel--><g class="entity" data-qualified-name="BaseModel" data-source-line="3" id="ent0001"><rect fill="#F1F1F1" height="96.8906" rx="2.5" ry="2.5" style="stroke:#181818;stroke-width:0.5;" width="161.625" x="195" y="44.2969"/><ellipse cx="234.075" cy="60.2969" fill="#ADD1B2" rx="11" ry="11" style="stroke:#181818;stroke-width:1;"/><path d="M237.0438,65.9375 Q236.4656,66.2344 235.825,66.375 Q235.1844,66.5313 234.4813,66.5313 Q231.9813,66.5313 230.6531,64.8906 Q229.3406,63.2344 229.3406,60.1094 Q229.3406,56.9844 230.6531,55.3281 Q231.9813,53.6719 234.4813,53.6719 Q235.1844,53.6719 235.825,53.8281 Q236.4813,53.9844 237.0438,54.2813 L237.0438,57 Q236.4188,56.4219 235.825,56.1563 Q235.2313,55.875 234.6063,55.875 Q233.2625,55.875 232.575,56.9531 Q231.8875,58.0156 231.8875,60.1094 Q231.8875,62.2031 232.575,63.2813 Q233.2625,64.3438 234.6063,64.3438 Q235.2313,64.3438 235.825,64.0781 Q236.4188,63.7969 237.0438,63.2188 L237.0438,65.9375 Z " fill="#000000"/><text fill="#000000" font-family="sans-serif" font-size="14" lengthAdjust="spacing" textLength="76.125" x="253.425" y="65.1436">BaseModel</text><line style="stroke:#181818;stroke-width:0.5;" x1="196" x2="355.625" y1="76.2969" y2="76.2969"/><g data-visibility-modifier="PUBLIC_FIELD"><ellipse cx="206" cy="89.9453" fill="none" rx="3" ry="3" style="stroke:#038048;stroke-width:1;"/></g><text fill="#000000" font-family="sans-serif" font-size="14" lengthAdjust="spacing" textLength="60.5186" x="215" y="93.292">id : Long</text><g data-visibility-modifier="PUBLIC_FIELD"><ellipse cx="206" cy="106.2422" fill="none" rx="3" ry="3" style="stroke:#038048;stroke-width:1;"/></g><text fill="#000000" font-family="sans-serif" font-size="14" lengthAdjust="spacing" textLength="131.0449" x="215" y="109.5889">createdAt : Instant</text><g data-visibility-modifier="PUBLIC_FIELD"><ellipse cx="206" cy="122.5391" fill="none" rx="3" ry="3" style="stroke:#038048;stroke-width:1;"/></g><text fill="#000000" font-family="sans-serif" font-size="14" lengthAdjust="spacing" textLength="135.625" x="215" y="125.8857">updatedAt : Instant</text><line style="stroke:#181818;stroke-width:0.5;" x1="196" x2="355.625" y1="133.1875" y2="133.1875"/></g><!--class SoftDeleteModel--><g class="entity" data-qualified-name="SoftDeleteModel" data-source-line="9" id="ent0002"><rect fill="#F1F1F1" height="64.2969" rx="2.5" ry="2.5" style="stroke:#181818;stroke-width:0.5;" width="156.4023" x="125" y="202.2969"/><ellipse cx="143.8246" cy="218.2969" fill="#ADD1B2" rx="11" ry="11" style="stroke:#181818;stroke-width:1;"/><path d="M146.7933,223.9375 Q146.2152,224.2344 145.5746,224.375 Q144.9339,224.5313 144.2308,224.5313 Q141.7308,224.5313 140.4027,222.8906 Q139.0902,221.2344 139.0902,218.1094 Q139.0902,214.9844 140.4027,213.3281 Q141.7308,211.6719 144.2308,211.6719 Q144.9339,211.6719 145.5746,211.8281 Q146.2308,211.9844 146.7933,212.2813 L146.7933,215 Q146.1683,214.4219 145.5746,214.1563 Q144.9808,213.875 144.3558,213.875 Q143.0121,213.875 142.3246,214.9531 Q141.6371,216.0156 141.6371,218.1094 Q141.6371,220.2031 142.3246,221.2813 Q143.0121,222.3438 144.3558,222.3438 Q144.9808,222.3438 145.5746,222.0781 Q146.1683,221.7969 146.7933,221.2188 L146.7933,223.9375 Z " fill="#000000"/><text fill="#000000" font-family="sans-serif" font-size="14" lengthAdjust="spacing" textLength="115.9033" x="158.6745" y="223.1436">SoftDeleteModel</text><line style="stroke:#181818;stroke-width:0.5;" x1="126" x2="280.4023" y1="234.2969" y2="234.2969"/><g data-visibility-modifier="PUBLIC_FIELD"><ellipse cx="136" cy="247.9453" fill="none" rx="3" ry="3" style="stroke:#038048;stroke-width:1;"/></g><text fill="#000000" font-family="sans-serif" font-size="14" lengthAdjust="spacing" textLength="130.4023" x="145" y="251.292">deletedAt : Instant</text><line style="stroke:#181818;stroke-width:0.5;" x1="126" x2="280.4023" y1="258.5938" y2="258.5938"/></g><!--class User--><g class="entity" data-qualified-name="User" data-source-line="13" id="ent0003"><rect fill="#F1F1F1" height="210.9688" rx="2.5" ry="2.5" style="stroke:#181818;stroke-width:0.5;" width="190.7393" x="15.5" y="327.2969"/><ellipse cx="90.6646" cy="343.2969" fill="#ADD1B2" rx="11" ry="11" style="stroke:#181818;stroke-width:1;"/><path d="M93.6333,348.9375 Q93.0552,349.2344 92.4146,349.375 Q91.7739,349.5313 91.0708,349.5313 Q88.5708,349.5313 87.2427,347.8906 Q85.9302,346.2344 85.9302,343.1094 Q85.9302,339.9844 87.2427,338.3281 Q88.5708,336.6719 91.0708,336.6719 Q91.7739,336.6719 92.4146,336.8281 Q93.0708,336.9844 93.6333,337.2813 L93.6333,340 Q93.0083,339.4219 92.4146,339.1563 Q91.8208,338.875 91.1958,338.875 Q89.8521,338.875 89.1646,339.9531 Q88.4771,341.0156 88.4771,343.1094 Q88.4771,345.2031 89.1646,346.2813 Q89.8521,347.3438 91.1958,347.3438 Q91.8208,347.3438 92.4146,347.0781 Q93.0083,346.7969 93.6333,346.2188 L93.6333,348.9375 Z " fill="#000000"/><text fill="#000000" font-family="sans-serif" font-size="14" lengthAdjust="spacing" textLength="31.9102" x="111.1646" y="348.1436">User</text><line style="stroke:#181818;stroke-width:0.5;" x1="16.5" x2="205.2393" y1="359.2969" y2="359.2969"/><g data-visibility-modifier="PUBLIC_FIELD"><ellipse cx="26.5" cy="372.9453" fill="none" rx="3" ry="3" style="stroke:#038048;stroke-width:1;"/></g><text fill="#000000" font-family="sans-serif" font-size="14" lengthAdjust="spacing" textLength="125.6377" x="35.5" y="376.292">username : String</text><g data-visibility-modifier="PUBLIC_FIELD"><ellipse cx="26.5" cy="389.2422" fill="none" rx="3" ry="3" style="stroke:#038048;stroke-width:1;"/></g><text fill="#000000" font-family="sans-serif" font-size="14" lengthAdjust="spacing" textLength="94.0078" x="35.5" y="392.5889">email : String</text><g data-visibility-modifier="PUBLIC_FIELD"><ellipse cx="26.5" cy="405.5391" fill="none" rx="3" ry="3" style="stroke:#038048;stroke-width:1;"/></g><text fill="#000000" font-family="sans-serif" font-size="14" lengthAdjust="spacing" textLength="157.3838" x="35.5" y="408.8857">passwordHash : String</text><g data-visibility-modifier="PUBLIC_FIELD"><ellipse cx="26.5" cy="421.8359" fill="none" rx="3" ry="3" style="stroke:#038048;stroke-width:1;"/></g><text fill="#000000" font-family="sans-serif" font-size="14" lengthAdjust="spacing" textLength="118.2822" x="35.5" y="425.1826">fullName : String</text><g data-visibility-modifier="PUBLIC_FIELD"><ellipse cx="26.5" cy="438.1328" fill="none" rx="3" ry="3" style="stroke:#038048;stroke-width:1;"/></g><text fill="#000000" font-family="sans-serif" font-size="14" lengthAdjust="spacing" textLength="155.3604" x="35.5" y="441.4795">avatarPublicId : String</text><g data-visibility-modifier="PUBLIC_FIELD"><ellipse cx="26.5" cy="454.4297" fill="none" rx="3" ry="3" style="stroke:#038048;stroke-width:1;"/></g><text fill="#000000" font-family="sans-serif" font-size="14" lengthAdjust="spacing" textLength="114.8369" x="35.5" y="457.7764">gender : Gender</text><g data-visibility-modifier="PUBLIC_FIELD"><ellipse cx="26.5" cy="470.7266" fill="none" rx="3" ry="3" style="stroke:#038048;stroke-width:1;"/></g><text fill="#000000" font-family="sans-serif" font-size="14" lengthAdjust="spacing" textLength="164.7393" x="35.5" y="474.0732">dateOfBirth : LocalDate</text><g data-visibility-modifier="PUBLIC_FIELD"><ellipse cx="26.5" cy="487.0234" fill="none" rx="3" ry="3" style="stroke:#038048;stroke-width:1;"/></g><text fill="#000000" font-family="sans-serif" font-size="14" lengthAdjust="spacing" textLength="103.1475" x="35.5" y="490.3701">role : UserRole</text><g data-visibility-modifier="PUBLIC_FIELD"><ellipse cx="26.5" cy="503.3203" fill="none" rx="3" ry="3" style="stroke:#038048;stroke-width:1;"/></g><text fill="#000000" font-family="sans-serif" font-size="14" lengthAdjust="spacing" textLength="124.3252" x="35.5" y="506.667">isActive : boolean</text><g data-visibility-modifier="PUBLIC_FIELD"><ellipse cx="26.5" cy="519.6172" fill="none" rx="3" ry="3" style="stroke:#038048;stroke-width:1;"/></g><text fill="#000000" font-family="sans-serif" font-size="14" lengthAdjust="spacing" textLength="130.4434" x="35.5" y="522.9639">isLocked : boolean</text><line style="stroke:#181818;stroke-width:0.5;" x1="16.5" x2="205.2393" y1="530.2656" y2="530.2656"/></g><!--class RefreshToken--><g class="entity" data-qualified-name="RefreshToken" data-source-line="26" id="ent0004"><rect fill="#F1F1F1" height="129.4844" rx="2.5" ry="2.5" style="stroke:#181818;stroke-width:0.5;" width="178.4961" x="276" y="368.2969"/><ellipse cx="313.4908" cy="384.2969" fill="#ADD1B2" rx="11" ry="11" style="stroke:#181818;stroke-width:1;"/><path d="M316.4595,389.9375 Q315.8814,390.2344 315.2408,390.375 Q314.6001,390.5313 313.897,390.5313 Q311.397,390.5313 310.0689,388.8906 Q308.7564,387.2344 308.7564,384.1094 Q308.7564,380.9844 310.0689,379.3281 Q311.397,377.6719 313.897,377.6719 Q314.6001,377.6719 315.2408,377.8281 Q315.897,377.9844 316.4595,378.2813 L316.4595,381 Q315.8345,380.4219 315.2408,380.1563 Q314.647,379.875 314.022,379.875 Q312.6783,379.875 311.9908,380.9531 Q311.3033,382.0156 311.3033,384.1094 Q311.3033,386.2031 311.9908,387.2813 Q312.6783,388.3438 314.022,388.3438 Q314.647,388.3438 315.2408,388.0781 Q315.8345,387.7969 316.4595,387.2188 L316.4595,389.9375 Z " fill="#000000"/><text fill="#000000" font-family="sans-serif" font-size="14" lengthAdjust="spacing" textLength="96.5166" x="332.4887" y="389.1436">RefreshToken</text><line style="stroke:#181818;stroke-width:0.5;" x1="277" x2="453.4961" y1="400.2969" y2="400.2969"/><g data-visibility-modifier="PUBLIC_FIELD"><ellipse cx="287" cy="413.9453" fill="none" rx="3" ry="3" style="stroke:#038048;stroke-width:1;"/></g><text fill="#000000" font-family="sans-serif" font-size="14" lengthAdjust="spacing" textLength="130.3203" x="296" y="417.292">tokenHash : String</text><g data-visibility-modifier="PUBLIC_FIELD"><ellipse cx="287" cy="430.2422" fill="none" rx="3" ry="3" style="stroke:#038048;stroke-width:1;"/></g><text fill="#000000" font-family="sans-serif" font-size="14" lengthAdjust="spacing" textLength="128.748" x="296" y="433.5889">expiresAt : Instant</text><g data-visibility-modifier="PUBLIC_FIELD"><ellipse cx="287" cy="446.5391" fill="none" rx="3" ry="3" style="stroke:#038048;stroke-width:1;"/></g><text fill="#000000" font-family="sans-serif" font-size="14" lengthAdjust="spacing" textLength="142.29" x="296" y="449.8857">isRevoked : Boolean</text><line style="stroke:#181818;stroke-width:1;" x1="277" x2="453.4961" y1="457.1875" y2="457.1875"/><g data-visibility-modifier="PUBLIC_METHOD"><ellipse cx="287" cy="470.8359" fill="#84BE84" rx="3" ry="3" style="stroke:#038048;stroke-width:1;"/></g><text fill="#000000" font-family="sans-serif" font-size="14" lengthAdjust="spacing" textLength="144.8604" x="296" y="474.1826">isExpired() : boolean</text><g data-visibility-modifier="PUBLIC_METHOD"><ellipse cx="287" cy="487.1328" fill="#84BE84" rx="3" ry="3" style="stroke:#038048;stroke-width:1;"/></g><text fill="#000000" font-family="sans-serif" font-size="14" lengthAdjust="spacing" textLength="152.4961" x="296" y="490.4795">isRevoked() : boolean</text></g><!--class Gender--><g class="entity" data-qualified-name="Gender" data-source-line="35" id="ent0005"><rect fill="#F1F1F1" height="80.5938" rx="2.5" ry="2.5" style="stroke:#181818;stroke-width:0.5;" width="83.5908" x="7" y="607.2969"/><ellipse cx="22" cy="623.2969" fill="#EB937F" rx="11" ry="11" style="stroke:#181818;stroke-width:1;"/><path d="M26.1094,629.2969 L18.3906,629.2969 L18.3906,616.9063 L26.1094,616.9063 L26.1094,619.0625 L20.8438,619.0625 L20.8438,621.7344 L25.6094,621.7344 L25.6094,623.8906 L20.8438,623.8906 L20.8438,627.1406 L26.1094,627.1406 L26.1094,629.2969 Z " fill="#000000"/><text fill="#000000" font-family="sans-serif" font-size="14" lengthAdjust="spacing" textLength="51.5908" x="36" y="628.1436">Gender</text><line style="stroke:#181818;stroke-width:0.5;" x1="8" x2="89.5908" y1="639.2969" y2="639.2969"/><text fill="#000000" font-family="sans-serif" font-size="14" lengthAdjust="spacing" textLength="38.3018" x="13" y="656.292">MALE</text><text fill="#000000" font-family="sans-serif" font-size="14" lengthAdjust="spacing" textLength="55.2002" x="13" y="672.5889">FEMALE</text><line style="stroke:#181818;stroke-width:0.5;" x1="8" x2="89.5908" y1="679.8906" y2="679.8906"/></g><!--class UserRole--><g class="entity" data-qualified-name="UserRole" data-source-line="40" id="ent0006"><rect fill="#F1F1F1" height="96.8906" rx="2.5" ry="2.5" style="stroke:#181818;stroke-width:0.5;" width="95.8564" x="126" y="599.2969"/><ellipse cx="141.5177" cy="615.2969" fill="#EB937F" rx="11" ry="11" style="stroke:#181818;stroke-width:1;"/><path d="M145.6271,621.2969 L137.9083,621.2969 L137.9083,608.9063 L145.6271,608.9063 L145.6271,611.0625 L140.3614,611.0625 L140.3614,613.7344 L145.1271,613.7344 L145.1271,615.8906 L140.3614,615.8906 L140.3614,619.1406 L145.6271,619.1406 L145.6271,621.2969 Z " fill="#000000"/><text fill="#000000" font-family="sans-serif" font-size="14" lengthAdjust="spacing" textLength="62.7061" x="155.6327" y="620.1436">UserRole</text><line style="stroke:#181818;stroke-width:0.5;" x1="127" x2="220.8564" y1="631.2969" y2="631.2969"/><text fill="#000000" font-family="sans-serif" font-size="14" lengthAdjust="spacing" textLength="83.8564" x="132" y="648.292">SUPERUSER</text><text fill="#000000" font-family="sans-serif" font-size="14" lengthAdjust="spacing" textLength="47.0381" x="132" y="664.5889">ADMIN</text><text fill="#000000" font-family="sans-serif" font-size="14" lengthAdjust="spacing" textLength="37.707" x="132" y="680.8857">USER</text><line style="stroke:#181818;stroke-width:0.5;" x1="127" x2="220.8564" y1="688.1875" y2="688.1875"/></g><!--reverse link BaseModel to SoftDeleteModel--><g class="link" data-entity-1="ent0001" data-entity-2="ent0002" data-link-type="extension" data-source-line="46" id="lnk7"><path codeLine="46" d="M242.7356,157.3659 C232.2456,177.4159 228.68,184.2369 219.33,202.0869" fill="none" id="BaseModel-backto-SoftDeleteModel" style="stroke:#181818;stroke-width:1;"/><polygon fill="none" points="251.08,141.4169,237.4193,154.5844,248.0519,160.1474,251.08,141.4169" style="stroke:#181818;stroke-width:1;stroke-linejoin:miter;stroke-miterlimit:10;"/></g><!--reverse link SoftDeleteModel to User--><g class="link" data-entity-1="ent0002" data-entity-2="ent0003" data-link-type="extension" data-source-line="47" id="lnk8"><path codeLine="47" d="M180.7889,282.7392 C172.9389,299.5092 170.37,304.9769 159.98,327.1869" fill="none" id="SoftDeleteModel-backto-User" style="stroke:#181818;stroke-width:1;"/><polygon fill="none" points="188.42,266.4369,175.3548,280.1955,186.223,285.2829,188.42,266.4369" style="stroke:#181818;stroke-width:1;stroke-linejoin:miter;stroke-miterlimit:10;"/></g><!--reverse link BaseModel to RefreshToken--><g class="link" data-entity-1="ent0001" data-entity-2="ent0004" data-link-type="extension" data-source-line="49" id="lnk9"><path codeLine="49" d="M293.1435,158.9135 C308.7635,218.2335 330.9,302.2969 348.25,368.1869" fill="none" id="BaseModel-backto-RefreshToken" style="stroke:#181818;stroke-width:1;"/><polygon fill="none" points="288.56,141.5069,287.3413,160.4414,298.9457,157.3857,288.56,141.5069" style="stroke:#181818;stroke-width:1;stroke-linejoin:miter;stroke-miterlimit:10;"/></g><!--link User to Gender--><g class="link" data-entity-1="ent0003" data-entity-2="ent0005" data-link-type="dependency" data-source-line="51" id="lnk10"><path codeLine="51" d="M80.54,538.4269 C73.41,562.9369 67.6376,582.7862 61.9376,602.3662" fill="none" id="User-to-Gender" style="stroke:#181818;stroke-width:1;"/><polygon fill="#181818" points="60.54,607.1669,66.8962,599.6436,61.9376,602.3662,59.215,597.4075,60.54,607.1669" style="stroke:#181818;stroke-width:1;stroke-linejoin:miter;stroke-miterlimit:10;"/></g><!--link User to UserRole--><g class="link" data-entity-1="ent0003" data-entity-2="ent0006" data-link-type="dependency" data-source-line="52" id="lnk11"><path codeLine="52" d="M141.95,538.4269 C148.23,559.6769 153.133,576.2319 158.473,594.3019" fill="none" id="User-to-UserRole" style="stroke:#181818;stroke-width:1;"/><polygon fill="#181818" points="159.89,599.0969,161.1754,589.3323,158.473,594.3019,153.5034,591.5995,159.89,599.0969" style="stroke:#181818;stroke-width:1;stroke-linejoin:miter;stroke-miterlimit:10;"/></g><!--reverse link User to RefreshToken--><g class="link" data-entity-1="ent0003" data-entity-2="ent0004" data-link-type="dependency" data-source-line="54" id="lnk12"><path codeLine="54" d="M211.66,432.7969 C234.31,432.7969 253.36,432.7969 275.71,432.7969" fill="none" id="User-backto-RefreshToken" style="stroke:#181818;stroke-width:1;"/><polygon fill="#181818" points="206.66,432.7969,215.66,436.7969,211.66,432.7969,215.66,428.7969,206.66,432.7969" style="stroke:#181818;stroke-width:1;stroke-linejoin:miter;stroke-miterlimit:10;"/><text fill="#000000" font-family="sans-serif" font-size="13" lengthAdjust="spacing" textLength="33.5981" x="224.75" y="425.8638">owns</text><text fill="#000000" font-family="sans-serif" font-size="13" lengthAdjust="spacing" textLength="8.271" x="214.3106" y="429.2958">1</text><text fill="#000000" font-family="sans-serif" font-size="13" lengthAdjust="spacing" textLength="6.5" x="261.4906" y="429.1801">*</text></g><?plantuml-src TLBBRi8m4BpdAwoS-f0FlI9KAIXfYmGK9UK3JBm12sCZsu5ARV-z6oUca52VTcTslUFnEk4aa9K5GrAzPqAHkUOWewYKp5eoOHOyGBuYWkTHS38YCwqsRLeQO0vuuX2TAkkOSYrH7_Y0-0ct5hfoAKXmrtTp3_tJuoLsXJN6Ykq1wmfdH103g5_si0FsdhJXRynkUrHLIxaOtiAEp36phDTIb5FU8pUWEEeOaLSVTBhnfU_LH1YtzUQKJAO8jQJHifdGoCynx5oqIUd4iI7M6b6c0exTE-0N-Dc072e3TlkXTw224Qv9RZmDFWy2YuVV8cmEHzrEc5nCfZJmcM_bT_T3RLth5ONoGDNxpezErpoPPJvuoNmOYe89NLcnMcRvgiXodoNfVBhmaOUmvs_vnj-KzhScwc-HBsf633elhOiYlqcKFeS_FEVdFsgX-2acOseeYH_YQ_T7H9-KZNu1?></g></svg>