<svg xmlns="http://www.w3.org/2000/svg" xmlns:xlink="http://www.w3.org/1999/xlink" contentStyleType="text/css" data-diagram-type="CLASS" height="521px" preserveAspectRatio="none" style="width:710px;height:521px;background:#FFFFFF;" version="1.1" viewBox="0 0 710 521" width="710px" zoomAndPan="magnify"><?plantuml 1.2026.6?><defs/><g><g class="title" data-source-line="1"><text fill="#000000" font-family="sans-serif" font-size="14" font-weight="700" lengthAdjust="spacing" textLength="153.7539" x="274.8711" y="22.9951">User Domain Model</text></g><!--class BaseModel--><g class="entity" data-qualified-name="BaseModel" data-source-line="3" id="ent0001"><rect fill="#F1F1F1" height="96.8906" rx="2.5" ry="2.5" style="stroke:#181818;stroke-width:0.5;" width="161.625" x="518" y="44.2969"/><ellipse cx="557.075" cy="60.2969" fill="#ADD1B2" rx="11" ry="11" style="stroke:#181818;stroke-width:1;"/><path d="M560.0438,65.9375 Q559.4656,66.2344 558.825,66.375 Q558.1844,66.5313 557.4813,66.5313 Q554.9813,66.5313 553.6531,64.8906 Q552.3406,63.2344 552.3406,60.1094 Q552.3406,56.9844 553.6531,55.3281 Q554.9813,53.6719 557.4813,53.6719 Q558.1844,53.6719 558.825,53.8281 Q559.4813,53.9844 560.0438,54.2813 L560.0438,57 Q559.4188,56.4219 558.825,56.1563 Q558.2313,55.875 557.6063,55.875 Q556.2625,55.875 555.575,56.9531 Q554.8875,58.0156 554.8875,60.1094 Q554.8875,62.2031 555.575,63.2813 Q556.2625,64.3438 557.6063,64.3438 Q558.2313,64.3438 558.825,64.0781 Q559.4188,63.7969 560.0438,63.2188 L560.0438,65.9375 Z " fill="#000000"/><text fill="#000000" font-family="sans-serif" font-size="14" lengthAdjust="spacing" textLength="76.125" x="576.425" y="65.1436">BaseModel</text><line style="stroke:#181818;stroke-width:0.5;" x1="519" x2="678.625" y1="76.2969" y2="76.2969"/><g data-visibility-modifier="PROTECTED_FIELD"><polygon fill="none" points="529,84.9453,533,88.9453,529,92.9453,525,88.9453" style="stroke:#B38D22;stroke-width:1;stroke-linejoin:miter;stroke-miterlimit:10;"/></g><text fill="#000000" font-family="sans-serif" font-size="14" lengthAdjust="spacing" textLength="60.5186" x="538" y="93.292">id : Long</text><g data-visibility-modifier="PROTECTED_FIELD"><polygon fill="none" points="529,101.2422,533,105.2422,529,109.2422,525,105.2422" style="stroke:#B38D22;stroke-width:1;stroke-linejoin:miter;stroke-miterlimit:10;"/></g><text fill="#000000" font-family="sans-serif" font-size="14" lengthAdjust="spacing" textLength="131.0449" x="538" y="109.5889">createdAt : Instant</text><g data-visibility-modifier="PROTECTED_FIELD"><polygon fill="none" points="529,117.5391,533,121.5391,529,125.5391,525,121.5391" style="stroke:#B38D22;stroke-width:1;stroke-linejoin:miter;stroke-miterlimit:10;"/></g><text fill="#000000" font-family="sans-serif" font-size="14" lengthAdjust="spacing" textLength="135.625" x="538" y="125.8857">updatedAt : Instant</text><line style="stroke:#181818;stroke-width:0.5;" x1="519" x2="678.625" y1="133.1875" y2="133.1875"/></g><!--class SoftDeleteModel--><g class="entity" data-qualified-name="SoftDeleteModel" data-source-line="9" id="ent0002"><rect fill="#F1F1F1" height="64.2969" rx="2.5" ry="2.5" style="stroke:#181818;stroke-width:0.5;" width="156.4023" x="313" y="60.7969"/><ellipse cx="331.8246" cy="76.7969" fill="#ADD1B2" rx="11" ry="11" style="stroke:#181818;stroke-width:1;"/><path d="M334.7933,82.4375 Q334.2152,82.7344 333.5746,82.875 Q332.9339,83.0313 332.2308,83.0313 Q329.7308,83.0313 328.4027,81.3906 Q327.0902,79.7344 327.0902,76.6094 Q327.0902,73.4844 328.4027,71.8281 Q329.7308,70.1719 332.2308,70.1719 Q332.9339,70.1719 333.5746,70.3281 Q334.2308,70.4844 334.7933,70.7813 L334.7933,73.5 Q334.1683,72.9219 333.5746,72.6563 Q332.9808,72.375 332.3558,72.375 Q331.0121,72.375 330.3246,73.4531 Q329.6371,74.5156 329.6371,76.6094 Q329.6371,78.7031 330.3246,79.7813 Q331.0121,80.8438 332.3558,80.8438 Q332.9808,80.8438 333.5746,80.5781 Q334.1683,80.2969 334.7933,79.7188 L334.7933,82.4375 Z " fill="#000000"/><text fill="#000000" font-family="sans-serif" font-size="14" lengthAdjust="spacing" textLength="115.9033" x="346.6745" y="81.6436">SoftDeleteModel</text><line style="stroke:#181818;stroke-width:0.5;" x1="314" x2="468.4023" y1="92.7969" y2="92.7969"/><g data-visibility-modifier="PROTECTED_FIELD"><polygon fill="none" points="324,101.4453,328,105.4453,324,109.4453,320,105.4453" style="stroke:#B38D22;stroke-width:1;stroke-linejoin:miter;stroke-miterlimit:10;"/></g><text fill="#000000" font-family="sans-serif" font-size="14" lengthAdjust="spacing" textLength="130.4023" x="333" y="109.792">deletedAt : Instant</text><line style="stroke:#181818;stroke-width:0.5;" x1="314" x2="468.4023" y1="117.0938" y2="117.0938"/></g><!--class User--><g class="entity" data-qualified-name="User" data-source-line="13" id="ent0003"><rect fill="#F1F1F1" height="145.7813" rx="2.5" ry="2.5" style="stroke:#181818;stroke-width:0.5;" width="183.3838" x="264.5" y="202.2969"/><ellipse cx="335.9868" cy="218.2969" fill="#ADD1B2" rx="11" ry="11" style="stroke:#181818;stroke-width:1;"/><path d="M338.9556,223.9375 Q338.3774,224.2344 337.7368,224.375 Q337.0962,224.5313 336.3931,224.5313 Q333.8931,224.5313 332.5649,222.8906 Q331.2524,221.2344 331.2524,218.1094 Q331.2524,214.9844 332.5649,213.3281 Q333.8931,211.6719 336.3931,211.6719 Q337.0962,211.6719 337.7368,211.8281 Q338.3931,211.9844 338.9556,212.2813 L338.9556,215 Q338.3306,214.4219 337.7368,214.1563 Q337.1431,213.875 336.5181,213.875 Q335.1743,213.875 334.4868,214.9531 Q333.7993,216.0156 333.7993,218.1094 Q333.7993,220.2031 334.4868,221.2813 Q335.1743,222.3438 336.5181,222.3438 Q337.1431,222.3438 337.7368,222.0781 Q338.3306,221.7969 338.9556,221.2188 L338.9556,223.9375 Z " fill="#000000"/><text fill="#000000" font-family="sans-serif" font-size="14" lengthAdjust="spacing" textLength="31.9102" x="356.4868" y="223.1436">User</text><line style="stroke:#181818;stroke-width:0.5;" x1="265.5" x2="446.8838" y1="234.2969" y2="234.2969"/><g data-visibility-modifier="PRIVATE_FIELD"><rect fill="none" height="6" style="stroke:#C82930;stroke-width:1;" width="6" x="272.5" y="244.9453"/></g><text fill="#000000" font-family="sans-serif" font-size="14" lengthAdjust="spacing" textLength="125.6377" x="284.5" y="251.292">username : String</text><g data-visibility-modifier="PRIVATE_FIELD"><rect fill="none" height="6" style="stroke:#C82930;stroke-width:1;" width="6" x="272.5" y="261.2422"/></g><text fill="#000000" font-family="sans-serif" font-size="14" lengthAdjust="spacing" textLength="94.0078" x="284.5" y="267.5889">email : String</text><g data-visibility-modifier="PRIVATE_FIELD"><rect fill="none" height="6" style="stroke:#C82930;stroke-width:1;" width="6" x="272.5" y="277.5391"/></g><text fill="#000000" font-family="sans-serif" font-size="14" lengthAdjust="spacing" textLength="157.3838" x="284.5" y="283.8857">passwordHash : String</text><g data-visibility-modifier="PRIVATE_FIELD"><rect fill="none" height="6" style="stroke:#C82930;stroke-width:1;" width="6" x="272.5" y="293.8359"/></g><text fill="#000000" font-family="sans-serif" font-size="14" lengthAdjust="spacing" textLength="103.1475" x="284.5" y="300.1826">role : UserRole</text><g data-visibility-modifier="PRIVATE_FIELD"><rect fill="none" height="6" style="stroke:#C82930;stroke-width:1;" width="6" x="272.5" y="310.1328"/></g><text fill="#000000" font-family="sans-serif" font-size="14" lengthAdjust="spacing" textLength="124.3252" x="284.5" y="316.4795">isActive : boolean</text><g data-visibility-modifier="PRIVATE_FIELD"><rect fill="none" height="6" style="stroke:#C82930;stroke-width:1;" width="6" x="272.5" y="326.4297"/></g><text fill="#000000" font-family="sans-serif" font-size="14" lengthAdjust="spacing" textLength="130.4434" x="284.5" y="332.7764">isLocked : boolean</text><line style="stroke:#181818;stroke-width:0.5;" x1="265.5" x2="446.8838" y1="340.0781" y2="340.0781"/></g><!--class UserProfile--><g class="entity" data-qualified-name="UserProfile" data-source-line="22" id="ent0004"><rect fill="#F1F1F1" height="129.4844" rx="2.5" ry="2.5" style="stroke:#181818;stroke-width:0.5;" width="186.2891" x="7" y="210.7969"/><ellipse cx="57.897" cy="226.7969" fill="#ADD1B2" rx="11" ry="11" style="stroke:#181818;stroke-width:1;"/><path d="M60.8657,232.4375 Q60.2876,232.7344 59.647,232.875 Q59.0063,233.0313 58.3032,233.0313 Q55.8032,233.0313 54.4751,231.3906 Q53.1626,229.7344 53.1626,226.6094 Q53.1626,223.4844 54.4751,221.8281 Q55.8032,220.1719 58.3032,220.1719 Q59.0063,220.1719 59.647,220.3281 Q60.3032,220.4844 60.8657,220.7813 L60.8657,223.5 Q60.2407,222.9219 59.647,222.6563 Q59.0532,222.375 58.4282,222.375 Q57.0845,222.375 56.397,223.4531 Q55.7095,224.5156 55.7095,226.6094 Q55.7095,228.7031 56.397,229.7813 Q57.0845,230.8438 58.4282,230.8438 Q59.0532,230.8438 59.647,230.5781 Q60.2407,230.2969 60.8657,229.7188 L60.8657,232.4375 Z " fill="#000000"/><text fill="#000000" font-family="sans-serif" font-size="14" lengthAdjust="spacing" textLength="75.9951" x="78.397" y="231.6436">UserProfile</text><line style="stroke:#181818;stroke-width:0.5;" x1="8" x2="192.2891" y1="242.7969" y2="242.7969"/><g data-visibility-modifier="PRIVATE_FIELD"><rect fill="none" height="6" style="stroke:#C82930;stroke-width:1;" width="6" x="15" y="253.4453"/></g><text fill="#000000" font-family="sans-serif" font-size="14" lengthAdjust="spacing" textLength="150.9102" x="27" y="259.792">avatarPublicId: String</text><g data-visibility-modifier="PRIVATE_FIELD"><rect fill="none" height="6" style="stroke:#C82930;stroke-width:1;" width="6" x="15" y="269.7422"/></g><text fill="#000000" font-family="sans-serif" font-size="14" lengthAdjust="spacing" textLength="116.1084" x="27" y="276.0889">avatarUrl: String</text><g data-visibility-modifier="PRIVATE_FIELD"><rect fill="none" height="6" style="stroke:#C82930;stroke-width:1;" width="6" x="15" y="286.0391"/></g><text fill="#000000" font-family="sans-serif" font-size="14" lengthAdjust="spacing" textLength="113.832" x="27" y="292.3857">fullName: String</text><g data-visibility-modifier="PRIVATE_FIELD"><rect fill="none" height="6" style="stroke:#C82930;stroke-width:1;" width="6" x="15" y="302.3359"/></g><text fill="#000000" font-family="sans-serif" font-size="14" lengthAdjust="spacing" textLength="110.3867" x="27" y="308.6826">gender: Gender</text><g data-visibility-modifier="PRIVATE_FIELD"><rect fill="none" height="6" style="stroke:#C82930;stroke-width:1;" width="6" x="15" y="318.6328"/></g><text fill="#000000" font-family="sans-serif" font-size="14" lengthAdjust="spacing" textLength="160.2891" x="27" y="324.9795">dateOfBirth: LocalDate</text><line style="stroke:#181818;stroke-width:0.5;" x1="8" x2="192.2891" y1="332.2813" y2="332.2813"/></g><!--class RefreshToken--><g class="entity" data-qualified-name="RefreshToken" data-source-line="30" id="ent0005"><rect fill="#F1F1F1" height="129.4844" rx="2.5" ry="2.5" style="stroke:#181818;stroke-width:0.5;" width="178.4961" x="517" y="210.7969"/><ellipse cx="554.4908" cy="226.7969" fill="#ADD1B2" rx="11" ry="11" style="stroke:#181818;stroke-width:1;"/><path d="M557.4595,232.4375 Q556.8814,232.7344 556.2408,232.875 Q555.6001,233.0313 554.897,233.0313 Q552.397,233.0313 551.0689,231.3906 Q549.7564,229.7344 549.7564,226.6094 Q549.7564,223.4844 551.0689,221.8281 Q552.397,220.1719 554.897,220.1719 Q555.6001,220.1719 556.2408,220.3281 Q556.897,220.4844 557.4595,220.7813 L557.4595,223.5 Q556.8345,222.9219 556.2408,222.6563 Q555.647,222.375 555.022,222.375 Q553.6783,222.375 552.9908,223.4531 Q552.3033,224.5156 552.3033,226.6094 Q552.3033,228.7031 552.9908,229.7813 Q553.6783,230.8438 555.022,230.8438 Q555.647,230.8438 556.2408,230.5781 Q556.8345,230.2969 557.4595,229.7188 L557.4595,232.4375 Z " fill="#000000"/><text fill="#000000" font-family="sans-serif" font-size="14" lengthAdjust="spacing" textLength="96.5166" x="573.4887" y="231.6436">RefreshToken</text><line style="stroke:#181818;stroke-width:0.5;" x1="518" x2="694.4961" y1="242.7969" y2="242.7969"/><g data-visibility-modifier="PRIVATE_FIELD"><rect fill="none" height="6" style="stroke:#C82930;stroke-width:1;" width="6" x="525" y="253.4453"/></g><text fill="#000000" font-family="sans-serif" font-size="14" lengthAdjust="spacing" textLength="130.3203" x="537" y="259.792">tokenHash : String</text><g data-visibility-modifier="PRIVATE_FIELD"><rect fill="none" height="6" style="stroke:#C82930;stroke-width:1;" width="6" x="525" y="269.7422"/></g><text fill="#000000" font-family="sans-serif" font-size="14" lengthAdjust="spacing" textLength="128.748" x="537" y="276.0889">expiresAt : Instant</text><g data-visibility-modifier="PRIVATE_FIELD"><rect fill="none" height="6" style="stroke:#C82930;stroke-width:1;" width="6" x="525" y="286.0391"/></g><text fill="#000000" font-family="sans-serif" font-size="14" lengthAdjust="spacing" textLength="142.29" x="537" y="292.3857">isRevoked : Boolean</text><line style="stroke:#181818;stroke-width:1;" x1="518" x2="694.4961" y1="299.6875" y2="299.6875"/><g data-visibility-modifier="PUBLIC_METHOD"><ellipse cx="528" cy="313.3359" fill="#84BE84" rx="3" ry="3" style="stroke:#038048;stroke-width:1;"/></g><text fill="#000000" font-family="sans-serif" font-size="14" lengthAdjust="spacing" textLength="144.8604" x="537" y="316.6826">isExpired() : boolean</text><g data-visibility-modifier="PUBLIC_METHOD"><ellipse cx="528" cy="329.6328" fill="#84BE84" rx="3" ry="3" style="stroke:#038048;stroke-width:1;"/></g><text fill="#000000" font-family="sans-serif" font-size="14" lengthAdjust="spacing" textLength="152.4961" x="537" y="332.9795">isRevoked() : boolean</text></g><!--class Gender--><g class="entity" data-qualified-name="Gender" data-source-line="39" id="ent0006"><rect fill="#F1F1F1" height="80.5938" rx="2.5" ry="2.5" style="stroke:#181818;stroke-width:0.5;" width="83.5908" x="58" y="417.2969"/><ellipse cx="73" cy="433.2969" fill="#EB937F" rx="11" ry="11" style="stroke:#181818;stroke-width:1;"/><path d="M77.1094,439.2969 L69.3906,439.2969 L69.3906,426.9063 L77.1094,426.9063 L77.1094,429.0625 L71.8438,429.0625 L71.8438,431.7344 L76.6094,431.7344 L76.6094,433.8906 L71.8438,433.8906 L71.8438,437.1406 L77.1094,437.1406 L77.1094,439.2969 Z " fill="#000000"/><text fill="#000000" font-family="sans-serif" font-size="14" lengthAdjust="spacing" textLength="51.5908" x="87" y="438.1436">Gender</text><line style="stroke:#181818;stroke-width:0.5;" x1="59" x2="140.5908" y1="449.2969" y2="449.2969"/><text fill="#000000" font-family="sans-serif" font-size="14" lengthAdjust="spacing" textLength="38.3018" x="64" y="466.292">MALE</text><text fill="#000000" font-family="sans-serif" font-size="14" lengthAdjust="spacing" textLength="55.2002" x="64" y="482.5889">FEMALE</text><line style="stroke:#181818;stroke-width:0.5;" x1="59" x2="140.5908" y1="489.8906" y2="489.8906"/></g><!--class UserRole--><g class="entity" data-qualified-name="UserRole" data-source-line="44" id="ent0007"><rect fill="#F1F1F1" height="96.8906" rx="2.5" ry="2.5" style="stroke:#181818;stroke-width:0.5;" width="95.8564" x="308" y="409.2969"/><ellipse cx="323.5177" cy="425.2969" fill="#EB937F" rx="11" ry="11" style="stroke:#181818;stroke-width:1;"/><path d="M327.6271,431.2969 L319.9083,431.2969 L319.9083,418.9063 L327.6271,418.9063 L327.6271,421.0625 L322.3614,421.0625 L322.3614,423.7344 L327.1271,423.7344 L327.1271,425.8906 L322.3614,425.8906 L322.3614,429.1406 L327.6271,429.1406 L327.6271,431.2969 Z " fill="#000000"/><text fill="#000000" font-family="sans-serif" font-size="14" lengthAdjust="spacing" textLength="62.7061" x="337.6327" y="430.1436">UserRole</text><line style="stroke:#181818;stroke-width:0.5;" x1="309" x2="402.8564" y1="441.2969" y2="441.2969"/><text fill="#000000" font-family="sans-serif" font-size="14" lengthAdjust="spacing" textLength="83.8564" x="314" y="458.292">SUPERUSER</text><text fill="#000000" font-family="sans-serif" font-size="14" lengthAdjust="spacing" textLength="47.0381" x="314" y="474.5889">ADMIN</text><text fill="#000000" font-family="sans-serif" font-size="14" lengthAdjust="spacing" textLength="37.707" x="314" y="490.8857">USER</text><line style="stroke:#181818;stroke-width:0.5;" x1="309" x2="402.8564" y1="498.1875" y2="498.1875"/></g><!--link SoftDeleteModel to BaseModel--><g class="link" data-entity-1="ent0002" data-entity-2="ent0001" data-link-type="extension" data-source-line="50" id="lnk9"><path codeLine="50" d="M469.41,92.7969 C485.52,92.7969 483.64,92.7969 499.75,92.7969" fill="none" id="SoftDeleteModel-to-BaseModel" style="stroke:#181818;stroke-width:1;"/><polygon fill="none" points="517.75,92.7969,499.75,86.7969,499.75,98.7969,517.75,92.7969" style="stroke:#181818;stroke-width:1;stroke-linejoin:miter;stroke-miterlimit:10;"/></g><!--reverse link SoftDeleteModel to User--><g class="link" data-entity-1="ent0002" data-entity-2="ent0003" data-link-type="extension" data-source-line="51" id="lnk10"><path codeLine="51" d="M381.557,142.4984 C377.437,163.7684 375.21,175.2169 370,202.1069" fill="none" id="SoftDeleteModel-backto-User" style="stroke:#181818;stroke-width:1;"/><polygon fill="none" points="384.98,124.8269,375.6665,141.3574,387.4475,143.6394,384.98,124.8269" style="stroke:#181818;stroke-width:1;stroke-linejoin:miter;stroke-miterlimit:10;"/></g><!--reverse link BaseModel to RefreshToken--><g class="link" data-entity-1="ent0001" data-entity-2="ent0005" data-link-type="extension" data-source-line="53" id="lnk11"><path codeLine="53" d="M601.5593,159.6833 C602.3793,180.7733 602.65,187.8769 603.53,210.5269" fill="none" id="BaseModel-backto-RefreshToken" style="stroke:#181818;stroke-width:1;"/><polygon fill="none" points="600.86,141.6969,595.5639,159.9164,607.5548,159.4502,600.86,141.6969" style="stroke:#181818;stroke-width:1;stroke-linejoin:miter;stroke-miterlimit:10;"/></g><!--link UserProfile to Gender--><g class="link" data-entity-1="ent0004" data-entity-2="ent0006" data-link-type="dependency" data-source-line="55" id="lnk12"><path codeLine="55" d="M100,339.9369 C100,365.6169 100,389.4469 100,412.0569" fill="none" id="UserProfile-to-Gender" style="stroke:#181818;stroke-width:1;"/><polygon fill="#181818" points="100,417.0569,104,408.0569,100,412.0569,96,408.0569,100,417.0569" style="stroke:#181818;stroke-width:1;stroke-linejoin:miter;stroke-miterlimit:10;"/></g><!--link User to UserRole--><g class="link" data-entity-1="ent0003" data-entity-2="ent0007" data-link-type="dependency" data-source-line="56" id="lnk13"><path codeLine="56" d="M356,348.4169 C356,368.8369 356,385.5569 356,404.1469" fill="none" id="User-to-UserRole" style="stroke:#181818;stroke-width:1;"/><polygon fill="#181818" points="356,409.1469,360,400.1469,356,404.1469,352,400.1469,356,409.1469" style="stroke:#181818;stroke-width:1;stroke-linejoin:miter;stroke-miterlimit:10;"/></g><!--link UserProfile to User--><g class="link" data-entity-1="ent0004" data-entity-2="ent0003" data-link-type="composition" data-source-line="57" id="lnk15"><path codeLine="57" d="M193.15,275.2969 C216.31,275.2969 229.11,275.2969 252.21,275.2969" fill="none" id="UserProfile-to-User" style="stroke:#181818;stroke-width:1;"/><polygon fill="#181818" points="264.21,275.2969,258.21,271.2969,252.21,275.2969,258.21,279.2969,264.21,275.2969" style="stroke:#181818;stroke-width:1;stroke-linejoin:miter;stroke-miterlimit:10;"/><polygon fill="#000000" points="210.25,263.8633,219.2951,266.8022,219.2951,260.9244,210.25,263.8633" style="stroke:#000000;stroke-width:1;stroke-linejoin:miter;stroke-miterlimit:10;"/><text fill="#000000" font-family="sans-serif" font-size="13" lengthAdjust="spacing" textLength="22.9785" x="224.25" y="268.3638">has</text><text fill="#000000" font-family="sans-serif" font-size="13" lengthAdjust="spacing" textLength="8.271" x="201.1945" y="271.7281">1</text></g><!--reverse link User to RefreshToken--><g class="link" data-entity-1="ent0003" data-entity-2="ent0005" data-link-type="dependency" data-source-line="58" id="lnk16"><path codeLine="58" d="M452.67,275.2969 C475.25,275.2969 494.39,275.2969 516.84,275.2969" fill="none" id="User-backto-RefreshToken" style="stroke:#181818;stroke-width:1;"/><polygon fill="#181818" points="447.67,275.2969,456.67,279.2969,452.67,275.2969,456.67,271.2969,447.67,275.2969" style="stroke:#181818;stroke-width:1;stroke-linejoin:miter;stroke-miterlimit:10;"/><text fill="#000000" font-family="sans-serif" font-size="13" lengthAdjust="spacing" textLength="33.5981" x="465.75" y="268.3638">owns</text><text fill="#000000" font-family="sans-serif" font-size="13" lengthAdjust="spacing" textLength="8.271" x="455.8868" y="271.7343">1</text><text fill="#000000" font-family="sans-serif" font-size="13" lengthAdjust="spacing" textLength="6.5" x="502.6322" y="271.6801">*</text></g><?plantuml-src TLBBRi8m4BpdAonwQK4-z8eGKb3I5Wae2iq7c7W35iP6jWELslvxRUC0CMqksPsPNU_BCCC1bHeKokIUC87caW9FaeeJhT64QF00-agG_HuGesY8Pb9iWbyf80PeQYmy5TeGOGBJ7EWTyzCcNidQPC31HEcfn_u9ycMUbHWrrX5a3rQuCeg5WZ02smMFmOCDFqb5tuZUnfoIt2LnoGjh1fJfj3Biw9Yrj30H5s8cgntG6w9Ju5B9cjcCRPtaI0nHosRDMJMbqTjdibGymkk6yuLjBe8t82Ye8Nhr_m2wAR_N4wRCrcsc8ZopoBMe0ce5UliXTo0kLHdd_JKD-3mmAx_RfskyWACyTpwv7Gdslm7JkO-bZq_Hq0QNq0vbAmJHx4CteRHvEikzyP9xinMrwmcoLRdCYtAL5zvBi_bquIqFsPZhuOw-CSVnlINn_LaLzcz4eRWplYIvtJ36utOJ_ZATVxaYZ_JTqxtdNkSmXcXBD1gV5OuSOMLL_LvtKqCaJq8dlm00?></g></svg>