<svg xmlns="http://www.w3.org/2000/svg" xmlns:xlink="http://www.w3.org/1999/xlink" contentStyleType="text/css" data-diagram-type="CLASS" height="473px" preserveAspectRatio="none" style="width:604px;height:473px;background:#FFFFFF;" version="1.1" viewBox="0 0 604 473" width="604px" zoomAndPan="magnify"><?plantuml 1.2026.6?><defs/><g><!--class BaseModel--><g class="entity" data-qualified-name="BaseModel" data-source-line="2" id="ent0001"><rect fill="#F1F1F1" height="96.8906" rx="2.5" ry="2.5" style="stroke:#181818;stroke-width:0.5;" width="147.625" x="212" y="7"/><ellipse cx="244.775" cy="23" fill="#ADD1B2" rx="11" ry="11" style="stroke:#181818;stroke-width:1;"/><path d="M247.7438,28.6406 Q247.1656,28.9375 246.525,29.0781 Q245.8844,29.2344 245.1813,29.2344 Q242.6813,29.2344 241.3531,27.5938 Q240.0406,25.9375 240.0406,22.8125 Q240.0406,19.6875 241.3531,18.0313 Q242.6813,16.375 245.1813,16.375 Q245.8844,16.375 246.525,16.5313 Q247.1813,16.6875 247.7438,16.9844 L247.7438,19.7031 Q247.1188,19.125 246.525,18.8594 Q245.9313,18.5781 245.3063,18.5781 Q243.9625,18.5781 243.275,19.6563 Q242.5875,20.7188 242.5875,22.8125 Q242.5875,24.9063 243.275,25.9844 Q243.9625,27.0469 245.3063,27.0469 Q245.9313,27.0469 246.525,26.7813 Q247.1188,26.5 247.7438,25.9219 L247.7438,28.6406 Z " fill="#000000"/><text fill="#000000" font-family="sans-serif" font-size="14" lengthAdjust="spacing" textLength="76.125" x="262.725" y="27.8467">BaseModel</text><line style="stroke:#181818;stroke-width:0.5;" x1="213" x2="358.625" y1="39" y2="39"/><text fill="#000000" font-family="sans-serif" font-size="14" lengthAdjust="spacing" textLength="60.5186" x="218" y="55.9951">id : Long</text><text fill="#000000" font-family="sans-serif" font-size="14" lengthAdjust="spacing" textLength="131.0449" x="218" y="72.292">createdAt : Instant</text><text fill="#000000" font-family="sans-serif" font-size="14" lengthAdjust="spacing" textLength="135.625" x="218" y="88.5889">updatedAt : Instant</text><line style="stroke:#181818;stroke-width:0.5;" x1="213" x2="358.625" y1="95.8906" y2="95.8906"/></g><!--class Notification--><g class="entity" data-qualified-name="Notification" data-source-line="8" id="ent0002"><rect fill="#F1F1F1" height="162.0781" rx="2.5" ry="2.5" style="stroke:#181818;stroke-width:0.5;" width="242.7539" x="164.5" y="165"/><ellipse cx="241.4624" cy="181" fill="#ADD1B2" rx="11" ry="11" style="stroke:#181818;stroke-width:1;"/><path d="M244.4312,186.6406 Q243.853,186.9375 243.2124,187.0781 Q242.5718,187.2344 241.8687,187.2344 Q239.3687,187.2344 238.0405,185.5938 Q236.728,183.9375 236.728,180.8125 Q236.728,177.6875 238.0405,176.0313 Q239.3687,174.375 241.8687,174.375 Q242.5718,174.375 243.2124,174.5313 Q243.8687,174.6875 244.4312,174.9844 L244.4312,177.7031 Q243.8062,177.125 243.2124,176.8594 Q242.6187,176.5781 241.9937,176.5781 Q240.6499,176.5781 239.9624,177.6563 Q239.2749,178.7188 239.2749,180.8125 Q239.2749,182.9063 239.9624,183.9844 Q240.6499,185.0469 241.9937,185.0469 Q242.6187,185.0469 243.2124,184.7813 Q243.8062,184.5 244.4312,183.9219 L244.4312,186.6406 Z " fill="#000000"/><text fill="#000000" font-family="sans-serif" font-size="14" lengthAdjust="spacing" textLength="80.3291" x="261.9624" y="185.8467">Notification</text><line style="stroke:#181818;stroke-width:0.5;" x1="165.5" x2="406.2539" y1="197" y2="197"/><text fill="#000000" font-family="sans-serif" font-size="14" lengthAdjust="spacing" textLength="107.2354" x="170.5" y="213.9951">recipient : User</text><text fill="#000000" font-family="sans-serif" font-size="14" lengthAdjust="spacing" textLength="93.5635" x="170.5" y="230.292">sender : User</text><text fill="#000000" font-family="sans-serif" font-size="14" lengthAdjust="spacing" textLength="82.7695" x="170.5" y="246.5889">title : String</text><text fill="#000000" font-family="sans-serif" font-size="14" lengthAdjust="spacing" textLength="118.3164" x="170.5" y="262.8857">message : String</text><text fill="#000000" font-family="sans-serif" font-size="14" lengthAdjust="spacing" textLength="159.5576" x="170.5" y="279.1826">type : NotificationType</text><text fill="#000000" font-family="sans-serif" font-size="14" lengthAdjust="spacing" textLength="230.7539" x="170.5" y="295.4795">metadata : Map&lt;String, Object&gt;</text><text fill="#000000" font-family="sans-serif" font-size="14" lengthAdjust="spacing" textLength="116.5801" x="170.5" y="311.7764">isRead : boolean</text><line style="stroke:#181818;stroke-width:0.5;" x1="165.5" x2="406.2539" y1="319.0781" y2="319.0781"/></g><g class="entity" data-qualified-name="GMN3" data-source-line="19" id="ent0004"><path d="M86.5,388 L86.5,458.5313 A0,0 0 0 0 86.5,458.5313 L485.3633,458.5313 A0,0 0 0 0 485.3633,458.5313 L485.3633,398 L475.3633,388 L290,388 L286,327.05 L282,388 L86.5,388 A0,0 0 0 0 86.5,388" fill="#FEFFDD" style="stroke:#181818;stroke-width:0.5;"/><path d="M475.3633,388 L475.3633,398 L485.3633,398 L475.3633,388" fill="#FEFFDD" style="stroke:#181818;stroke-width:0.5;"/><text fill="#000000" font-family="sans-serif" font-size="13" lengthAdjust="spacing" textLength="296.7847" x="92.5" y="405.0669">Thu&#7897;c t&#237;nh NotificationType l&#224; lo&#7841;i th&#244;ng b&#225;o,</text><text fill="#000000" font-family="sans-serif" font-size="13" lengthAdjust="spacing" textLength="336.8892" x="92.5" y="420.1997">v&#237; d&#7909; th&#432; m&#7901;i v&#224;o game hay th&#244;ng b&#225;o t&#7915; h&#7879; th&#7889;ng.</text><text fill="#000000" font-family="sans-serif" font-size="13" lengthAdjust="spacing" textLength="377.8633" x="92.5" y="435.3325">C&#242;n metadata l&#224; th&#244;ng tin th&#234;m c&#7911;a c&#225;c NotificationType,</text><text fill="#000000" font-family="sans-serif" font-size="13" lengthAdjust="spacing" textLength="370.0366" x="92.5" y="450.4653">V&#237; d&#7909; th&#432; m&#7901;i v&#224;o game th&#236; c&#243; th&#244;ng tin {gameId: ""}, ...</text></g><!--class User--><g class="entity" data-qualified-name="User" data-source-line="25" id="ent0006"><rect fill="#F1F1F1" height="48" rx="2.5" ry="2.5" style="stroke:#181818;stroke-width:0.5;" width="63.9102" x="7" y="222"/><ellipse cx="22" cy="238" fill="#ADD1B2" rx="11" ry="11" style="stroke:#181818;stroke-width:1;"/><path d="M24.9688,243.6406 Q24.3906,243.9375 23.75,244.0781 Q23.1094,244.2344 22.4063,244.2344 Q19.9063,244.2344 18.5781,242.5938 Q17.2656,240.9375 17.2656,237.8125 Q17.2656,234.6875 18.5781,233.0313 Q19.9063,231.375 22.4063,231.375 Q23.1094,231.375 23.75,231.5313 Q24.4063,231.6875 24.9688,231.9844 L24.9688,234.7031 Q24.3438,234.125 23.75,233.8594 Q23.1563,233.5781 22.5313,233.5781 Q21.1875,233.5781 20.5,234.6563 Q19.8125,235.7188 19.8125,237.8125 Q19.8125,239.9063 20.5,240.9844 Q21.1875,242.0469 22.5313,242.0469 Q23.1563,242.0469 23.75,241.7813 Q24.3438,241.5 24.9688,240.9219 L24.9688,243.6406 Z " fill="#000000"/><text fill="#000000" font-family="sans-serif" font-size="14" lengthAdjust="spacing" textLength="31.9102" x="36" y="242.8467">User</text><line style="stroke:#181818;stroke-width:0.5;" x1="8" x2="69.9102" y1="254" y2="254"/><line style="stroke:#181818;stroke-width:0.5;" x1="8" x2="69.9102" y1="262" y2="262"/></g><!--class NotificationType--><g class="entity" data-qualified-name="NotificationType" data-source-line="27" id="ent0007"><rect fill="#F1F1F1" height="48" rx="2.5" ry="2.5" style="stroke:#181818;stroke-width:0.5;" width="146.666" x="442.5" y="222"/><ellipse cx="457.5" cy="238" fill="#EB937F" rx="11" ry="11" style="stroke:#181818;stroke-width:1;"/><path d="M461.6094,244 L453.8906,244 L453.8906,231.6094 L461.6094,231.6094 L461.6094,233.7656 L456.3438,233.7656 L456.3438,236.4375 L461.1094,236.4375 L461.1094,238.5938 L456.3438,238.5938 L456.3438,241.8438 L461.6094,241.8438 L461.6094,244 Z " fill="#000000"/><text fill="#000000" font-family="sans-serif" font-size="14" lengthAdjust="spacing" textLength="114.666" x="471.5" y="242.8467">NotificationType</text><line style="stroke:#181818;stroke-width:0.5;" x1="443.5" x2="588.166" y1="254" y2="254"/><line style="stroke:#181818;stroke-width:0.5;" x1="443.5" x2="588.166" y1="262" y2="262"/></g><!--reverse link BaseModel to Notification--><g class="link" data-entity-1="ent0001" data-entity-2="ent0002" data-link-type="extension" data-source-line="29" id="lnk9"><path codeLine="29" d="M286,122.07 C286,140.5 286,144.12 286,164.81" fill="none" id="BaseModel-backto-Notification" style="stroke:#181818;stroke-width:1;"/><polygon fill="none" points="286,104.07,280,122.07,292,122.07,286,104.07" style="stroke:#181818;stroke-width:1;stroke-linejoin:miter;stroke-miterlimit:10;"/></g><!--link Notification to NotificationType--><g class="link" data-entity-1="ent0002" data-entity-2="ent0007" data-link-type="dependency" data-source-line="31" id="lnk10"><path codeLine="31" d="M407.74,246 C419.3,246 425.86,246 437.42,246" fill="none" id="Notification-to-NotificationType" style="stroke:#181818;stroke-width:1;"/><polygon fill="#181818" points="442.42,246,433.42,242,437.42,246,433.42,250,442.42,246" style="stroke:#181818;stroke-width:1;stroke-linejoin:miter;stroke-miterlimit:10;"/></g><!--reverse link User to Notification--><g class="link" data-entity-1="ent0006" data-entity-2="ent0002" data-link-type="dependency" data-source-line="32" id="lnk12"><path codeLine="32" d="M76.04,246 C100.12,246 129.76,246 164.22,246" fill="none" id="User-backto-Notification" style="stroke:#181818;stroke-width:1;"/><polygon fill="#181818" points="71.04,246,80.04,250,76.04,246,80.04,242,71.04,246" style="stroke:#181818;stroke-width:1;stroke-linejoin:miter;stroke-miterlimit:10;"/><text fill="#000000" font-family="sans-serif" font-size="13" lengthAdjust="spacing" textLength="57.3003" x="89.25" y="239.0669">recipient</text><text fill="#000000" font-family="sans-serif" font-size="13" lengthAdjust="spacing" textLength="8.271" x="78.9632" y="241.4408">1</text><text fill="#000000" font-family="sans-serif" font-size="13" lengthAdjust="spacing" textLength="23.0356" x="133.5229" y="258.5021">0..*</text></g><!--reverse link User to Notification--><g class="link" data-entity-1="ent0006" data-entity-2="ent0002" data-link-type="dependency" data-source-line="33" id="lnk14"><path codeLine="33" d="M75.9363,261.3015 C83.5263,263.9215 86.95,264.64 94.75,266 C117.12,269.89 141.09,270.3 164.25,268.81" fill="none" id="User-backto-Notification-1" style="stroke:#181818;stroke-width:1;"/><polygon fill="#181818" points="71.21,259.67,78.4122,266.3877,75.9363,261.3015,81.0226,258.8256,71.21,259.67" style="stroke:#181818;stroke-width:1;stroke-linejoin:miter;stroke-miterlimit:10;"/><text fill="#000000" font-family="sans-serif" font-size="13" lengthAdjust="spacing" textLength="44.605" x="95.75" y="262.0669">sender</text><text fill="#000000" font-family="sans-serif" font-size="13" lengthAdjust="spacing" textLength="24.8066" x="78.8856" y="275.3869">0..1</text><text fill="#000000" font-family="sans-serif" font-size="13" lengthAdjust="spacing" textLength="23.0356" x="133.5546" y="282.6308">0..*</text></g><?plantuml-src VPB1IiD048Rl-nH3Zf84lHOfgAU2LT3gVRlP9Yl9RiXE2gNsxDcZ1w4zYA0MH3sPOy3to9kuIQDD6-YUTh-P-MTcPrX8jOPZgdbVUJo4AG5pX0STE5NIhruiuHIvTuG6zgH6Ah7YQUor-8mGLacUAHGZmIWA9MlLX3CH2ovB_olDamfgBZsUD0aA3Ba1bvY8keA8QqtzBOYJk2JDH0E3wW2afZXgx7qQ7wwYR3WVtd26tLMF-eBJii-XKY6diYnTAkJcZQWYKACDQJ88qY9xO83vKWQjh13cSmXLyRqGW47-9NqOvWjbat6-1A_8dWpzUOUeo1u5ZFEv0fz6708wQRe35jah14LsPsYHtKlV9IVvXrptKwQf0r38yleI0IkoPmeiNx1MNJQvtbc04NWpaPzDqMbfwNaTiAoP3Qxh4ZCZAF_cRxZLh0nDe_Rtaut9EwbpsrtlrxOrSRfjXGqNQzzrzonmGkDf7LXLQZEq_rtQuMtkwu3Ldf5V?></g></svg>