<svg xmlns="http://www.w3.org/2000/svg" xmlns:xlink="http://www.w3.org/1999/xlink" contentStyleType="text/css" data-diagram-type="CLASS" height="1172px" preserveAspectRatio="none" style="width:2036px;height:1172px;background:#FFFFFF;" version="1.1" viewBox="0 0 2036 1172" width="2036px" zoomAndPan="magnify"><?plantuml 1.2026.6?><defs/><g><g class="title" data-source-line="1"><text fill="#000000" font-family="sans-serif" font-size="14" font-weight="700" lengthAdjust="spacing" textLength="168.5947" x="930.2271" y="22.9951">Forum Entities Model</text></g><!--class BaseModel--><g class="entity" data-qualified-name="BaseModel" data-source-line="3" id="ent0001"><rect fill="#F1F1F1" height="96.8906" rx="2.5" ry="2.5" style="stroke:#181818;stroke-width:0.5;" width="161.625" x="1282" y="44.2969"/><ellipse cx="1321.075" cy="60.2969" fill="#ADD1B2" rx="11" ry="11" style="stroke:#181818;stroke-width:1;"/><path d="M1324.0438,65.9375 Q1323.4656,66.2344 1322.825,66.375 Q1322.1844,66.5313 1321.4813,66.5313 Q1318.9813,66.5313 1317.6531,64.8906 Q1316.3406,63.2344 1316.3406,60.1094 Q1316.3406,56.9844 1317.6531,55.3281 Q1318.9813,53.6719 1321.4813,53.6719 Q1322.1844,53.6719 1322.825,53.8281 Q1323.4813,53.9844 1324.0438,54.2813 L1324.0438,57 Q1323.4188,56.4219 1322.825,56.1563 Q1322.2313,55.875 1321.6063,55.875 Q1320.2625,55.875 1319.575,56.9531 Q1318.8875,58.0156 1318.8875,60.1094 Q1318.8875,62.2031 1319.575,63.2813 Q1320.2625,64.3438 1321.6063,64.3438 Q1322.2313,64.3438 1322.825,64.0781 Q1323.4188,63.7969 1324.0438,63.2188 L1324.0438,65.9375 Z " fill="#000000"/><text fill="#000000" font-family="sans-serif" font-size="14" lengthAdjust="spacing" textLength="76.125" x="1340.425" y="65.1436">BaseModel</text><line style="stroke:#181818;stroke-width:0.5;" x1="1283" x2="1442.625" y1="76.2969" y2="76.2969"/><g data-visibility-modifier="PROTECTED_FIELD"><polygon fill="none" points="1293,84.9453,1297,88.9453,1293,92.9453,1289,88.9453" style="stroke:#B38D22;stroke-width:1;stroke-linejoin:miter;stroke-miterlimit:10;"/></g><text fill="#000000" font-family="sans-serif" font-size="14" lengthAdjust="spacing" textLength="60.5186" x="1302" y="93.292">id : Long</text><g data-visibility-modifier="PROTECTED_FIELD"><polygon fill="none" points="1293,101.2422,1297,105.2422,1293,109.2422,1289,105.2422" style="stroke:#B38D22;stroke-width:1;stroke-linejoin:miter;stroke-miterlimit:10;"/></g><text fill="#000000" font-family="sans-serif" font-size="14" lengthAdjust="spacing" textLength="131.0449" x="1302" y="109.5889">createdAt : Instant</text><g data-visibility-modifier="PROTECTED_FIELD"><polygon fill="none" points="1293,117.5391,1297,121.5391,1293,125.5391,1289,121.5391" style="stroke:#B38D22;stroke-width:1;stroke-linejoin:miter;stroke-miterlimit:10;"/></g><text fill="#000000" font-family="sans-serif" font-size="14" lengthAdjust="spacing" textLength="135.625" x="1302" y="125.8857">updatedAt : Instant</text><line style="stroke:#181818;stroke-width:0.5;" x1="1283" x2="1442.625" y1="133.1875" y2="133.1875"/></g><!--class SoftDeleteModel--><g class="entity" data-qualified-name="SoftDeleteModel" data-source-line="9" id="ent0002"><rect fill="#F1F1F1" height="64.2969" rx="2.5" ry="2.5" style="stroke:#181818;stroke-width:0.5;" width="156.4023" x="876" y="60.7969"/><ellipse cx="894.8246" cy="76.7969" fill="#ADD1B2" rx="11" ry="11" style="stroke:#181818;stroke-width:1;"/><path d="M897.7933,82.4375 Q897.2152,82.7344 896.5746,82.875 Q895.9339,83.0313 895.2308,83.0313 Q892.7308,83.0313 891.4027,81.3906 Q890.0902,79.7344 890.0902,76.6094 Q890.0902,73.4844 891.4027,71.8281 Q892.7308,70.1719 895.2308,70.1719 Q895.9339,70.1719 896.5746,70.3281 Q897.2308,70.4844 897.7933,70.7813 L897.7933,73.5 Q897.1683,72.9219 896.5746,72.6563 Q895.9808,72.375 895.3558,72.375 Q894.0121,72.375 893.3246,73.4531 Q892.6371,74.5156 892.6371,76.6094 Q892.6371,78.7031 893.3246,79.7813 Q894.0121,80.8438 895.3558,80.8438 Q895.9808,80.8438 896.5746,80.5781 Q897.1683,80.2969 897.7933,79.7188 L897.7933,82.4375 Z " fill="#000000"/><text fill="#000000" font-family="sans-serif" font-size="14" lengthAdjust="spacing" textLength="115.9033" x="909.6745" y="81.6436">SoftDeleteModel</text><line style="stroke:#181818;stroke-width:0.5;" x1="877" x2="1031.4023" y1="92.7969" y2="92.7969"/><g data-visibility-modifier="PROTECTED_FIELD"><polygon fill="none" points="887,101.4453,891,105.4453,887,109.4453,883,105.4453" style="stroke:#B38D22;stroke-width:1;stroke-linejoin:miter;stroke-miterlimit:10;"/></g><text fill="#000000" font-family="sans-serif" font-size="14" lengthAdjust="spacing" textLength="130.4023" x="896" y="109.792">deletedAt : Instant</text><line style="stroke:#181818;stroke-width:0.5;" x1="877" x2="1031.4023" y1="117.0938" y2="117.0938"/></g><!--class User--><g class="entity" data-qualified-name="User" data-source-line="13" id="ent0003"><rect fill="#F1F1F1" height="48" rx="2.5" ry="2.5" style="stroke:#181818;stroke-width:0.5;" width="63.9102" x="1028" y="1109.2969"/><ellipse cx="1043" cy="1125.2969" fill="#ADD1B2" rx="11" ry="11" style="stroke:#181818;stroke-width:1;"/><path d="M1045.9688,1130.9375 Q1045.3906,1131.2344 1044.75,1131.375 Q1044.1094,1131.5313 1043.4063,1131.5313 Q1040.9063,1131.5313 1039.5781,1129.8906 Q1038.2656,1128.2344 1038.2656,1125.1094 Q1038.2656,1121.9844 1039.5781,1120.3281 Q1040.9063,1118.6719 1043.4063,1118.6719 Q1044.1094,1118.6719 1044.75,1118.8281 Q1045.4063,1118.9844 1045.9688,1119.2813 L1045.9688,1122 Q1045.3438,1121.4219 1044.75,1121.1563 Q1044.1563,1120.875 1043.5313,1120.875 Q1042.1875,1120.875 1041.5,1121.9531 Q1040.8125,1123.0156 1040.8125,1125.1094 Q1040.8125,1127.2031 1041.5,1128.2813 Q1042.1875,1129.3438 1043.5313,1129.3438 Q1044.1563,1129.3438 1044.75,1129.0781 Q1045.3438,1128.7969 1045.9688,1128.2188 L1045.9688,1130.9375 Z " fill="#000000"/><text fill="#000000" font-family="sans-serif" font-size="14" lengthAdjust="spacing" textLength="31.9102" x="1057" y="1130.1436">User</text><line style="stroke:#181818;stroke-width:0.5;" x1="1029" x2="1090.9102" y1="1141.2969" y2="1141.2969"/><line style="stroke:#181818;stroke-width:0.5;" x1="1029" x2="1090.9102" y1="1149.2969" y2="1149.2969"/></g><!--class Post--><g class="entity" data-qualified-name="Post" data-source-line="15" id="ent0004"><rect fill="#F1F1F1" height="162.0781" rx="2.5" ry="2.5" style="stroke:#181818;stroke-width:0.5;" width="226.7168" x="743.5" y="647.2969"/><ellipse cx="837.7129" cy="663.2969" fill="#ADD1B2" rx="11" ry="11" style="stroke:#181818;stroke-width:1;"/><path d="M840.6816,668.9375 Q840.1035,669.2344 839.4629,669.375 Q838.8223,669.5313 838.1191,669.5313 Q835.6191,669.5313 834.291,667.8906 Q832.9785,666.2344 832.9785,663.1094 Q832.9785,659.9844 834.291,658.3281 Q835.6191,656.6719 838.1191,656.6719 Q838.8223,656.6719 839.4629,656.8281 Q840.1191,656.9844 840.6816,657.2813 L840.6816,660 Q840.0566,659.4219 839.4629,659.1563 Q838.8691,658.875 838.2441,658.875 Q836.9004,658.875 836.2129,659.9531 Q835.5254,661.0156 835.5254,663.1094 Q835.5254,665.2031 836.2129,666.2813 Q836.9004,667.3438 838.2441,667.3438 Q838.8691,667.3438 839.4629,667.0781 Q840.0566,666.7969 840.6816,666.2188 L840.6816,668.9375 Z " fill="#000000"/><text fill="#000000" font-family="sans-serif" font-size="14" lengthAdjust="spacing" textLength="29.791" x="858.2129" y="668.1436">Post</text><line style="stroke:#181818;stroke-width:0.5;" x1="744.5" x2="969.2168" y1="679.2969" y2="679.2969"/><g data-visibility-modifier="PRIVATE_FIELD"><rect fill="none" height="6" style="stroke:#C82930;stroke-width:1;" width="6" x="751.5" y="689.9453"/></g><text fill="#000000" font-family="sans-serif" font-size="14" lengthAdjust="spacing" textLength="91.6631" x="763.5" y="696.292">author : User</text><g data-visibility-modifier="PRIVATE_FIELD"><rect fill="none" height="6" style="stroke:#C82930;stroke-width:1;" width="6" x="751.5" y="706.2422"/></g><text fill="#000000" font-family="sans-serif" font-size="14" lengthAdjust="spacing" textLength="82.7695" x="763.5" y="712.5889">title : String</text><g data-visibility-modifier="PRIVATE_FIELD"><rect fill="none" height="6" style="stroke:#C82930;stroke-width:1;" width="6" x="751.5" y="722.5391"/></g><text fill="#000000" font-family="sans-serif" font-size="14" lengthAdjust="spacing" textLength="108.999" x="763.5" y="728.8857">content : String</text><g data-visibility-modifier="PRIVATE_FIELD"><rect fill="none" height="6" style="stroke:#C82930;stroke-width:1;" width="6" x="751.5" y="738.8359"/></g><text fill="#000000" font-family="sans-serif" font-size="14" lengthAdjust="spacing" textLength="131.0381" x="763.5" y="745.1826">status : PostStatus</text><g data-visibility-modifier="PRIVATE_FIELD"><rect fill="none" height="6" style="stroke:#C82930;stroke-width:1;" width="6" x="751.5" y="755.1328"/></g><text fill="#000000" font-family="sans-serif" font-size="14" lengthAdjust="spacing" textLength="117.6465" x="763.5" y="761.4795">viewCount : long</text><g data-visibility-modifier="PRIVATE_FIELD"><rect fill="none" height="6" style="stroke:#C82930;stroke-width:1;" width="6" x="751.5" y="771.4297"/></g><text fill="#000000" font-family="sans-serif" font-size="14" lengthAdjust="spacing" textLength="190.4629" x="763.5" y="777.7764">approvalInfo : ApprovalInfo</text><line style="stroke:#181818;stroke-width:1;" x1="744.5" x2="969.2168" y1="785.0781" y2="785.0781"/><g data-visibility-modifier="PUBLIC_METHOD"><ellipse cx="754.5" cy="798.7266" fill="#84BE84" rx="3" ry="3" style="stroke:#038048;stroke-width:1;"/></g><text fill="#000000" font-family="sans-serif" font-size="14" lengthAdjust="spacing" textLength="200.7168" x="763.5" y="802.0732">incrementViewCount() : void</text></g><!--class ApprovalInfo--><g class="entity" data-qualified-name="ApprovalInfo" data-source-line="26" id="ent0005"><rect fill="#F1F1F1" height="145.7813" rx="2.5" ry="2.5" style="stroke:#181818;stroke-width:0.5;" width="412.251" x="7" y="886.2969"/><ellipse cx="164.4146" cy="902.2969" fill="#ADD1B2" rx="11" ry="11" style="stroke:#181818;stroke-width:1;"/><path d="M167.3833,907.9375 Q166.8052,908.2344 166.1646,908.375 Q165.5239,908.5313 164.8208,908.5313 Q162.3208,908.5313 160.9927,906.8906 Q159.6802,905.2344 159.6802,902.1094 Q159.6802,898.9844 160.9927,897.3281 Q162.3208,895.6719 164.8208,895.6719 Q165.5239,895.6719 166.1646,895.8281 Q166.8208,895.9844 167.3833,896.2813 L167.3833,899 Q166.7583,898.4219 166.1646,898.1563 Q165.5708,897.875 164.9458,897.875 Q163.6021,897.875 162.9146,898.9531 Q162.2271,900.0156 162.2271,902.1094 Q162.2271,904.2031 162.9146,905.2813 Q163.6021,906.3438 164.9458,906.3438 Q165.5708,906.3438 166.1646,906.0781 Q166.7583,905.7969 167.3833,905.2188 L167.3833,907.9375 Z " fill="#000000"/><text fill="#000000" font-family="sans-serif" font-size="14" lengthAdjust="spacing" textLength="88.9219" x="184.9146" y="907.1436">ApprovalInfo</text><line style="stroke:#181818;stroke-width:0.5;" x1="8" x2="418.251" y1="918.2969" y2="918.2969"/><g data-visibility-modifier="PRIVATE_FIELD"><rect fill="none" height="6" style="stroke:#C82930;stroke-width:1;" width="6" x="15" y="928.9453"/></g><text fill="#000000" font-family="sans-serif" font-size="14" lengthAdjust="spacing" textLength="129.876" x="27" y="935.292">approvedBy : User</text><g data-visibility-modifier="PRIVATE_FIELD"><rect fill="none" height="6" style="stroke:#C82930;stroke-width:1;" width="6" x="15" y="945.2422"/></g><text fill="#000000" font-family="sans-serif" font-size="14" lengthAdjust="spacing" textLength="143.8691" x="27" y="951.5889">approvedAt : Instant</text><g data-visibility-modifier="PRIVATE_FIELD"><rect fill="none" height="6" style="stroke:#C82930;stroke-width:1;" width="6" x="15" y="961.5391"/></g><text fill="#000000" font-family="sans-serif" font-size="14" lengthAdjust="spacing" textLength="149.9668" x="27" y="967.8857">approvalNote : String</text><line style="stroke:#181818;stroke-width:1;" x1="8" x2="418.251" y1="975.1875" y2="975.1875"/><g data-visibility-modifier="PUBLIC_METHOD"><ellipse cx="18" cy="988.8359" fill="#84BE84" rx="3" ry="3" style="stroke:#038048;stroke-width:1;"/></g><text fill="#000000" font-family="sans-serif" font-size="14" lengthAdjust="spacing" textLength="159.1543" x="27" y="992.1826">isApproved() : boolean</text><g data-visibility-modifier="PUBLIC_METHOD"><ellipse cx="18" cy="1005.1328" fill="#84BE84" rx="3" ry="3" style="stroke:#038048;stroke-width:1;"/></g><text fill="#000000" font-family="sans-serif" font-size="14" lengthAdjust="spacing" textLength="386.251" x="27" y="1008.4795">approve(moderator : User, note : String) : ApprovalInfo</text><g data-visibility-modifier="PUBLIC_METHOD"><ellipse cx="18" cy="1021.4297" fill="#84BE84" rx="3" ry="3" style="stroke:#038048;stroke-width:1;"/></g><text fill="#000000" font-family="sans-serif" font-size="14" lengthAdjust="spacing" textLength="158.375" x="27" y="1024.7764">empty() : ApprovalInfo</text></g><!--class Comment--><g class="entity" data-qualified-name="Comment" data-source-line="36" id="ent0006"><rect fill="#F1F1F1" height="178.375" rx="2.5" ry="2.5" style="stroke:#181818;stroke-width:0.5;" width="218.6367" x="844.5" y="392.2969"/><ellipse cx="915.2725" cy="408.2969" fill="#ADD1B2" rx="11" ry="11" style="stroke:#181818;stroke-width:1;"/><path d="M918.2412,413.9375 Q917.6631,414.2344 917.0225,414.375 Q916.3818,414.5313 915.6787,414.5313 Q913.1787,414.5313 911.8506,412.8906 Q910.5381,411.2344 910.5381,408.1094 Q910.5381,404.9844 911.8506,403.3281 Q913.1787,401.6719 915.6787,401.6719 Q916.3818,401.6719 917.0225,401.8281 Q917.6787,401.9844 918.2412,402.2813 L918.2412,405 Q917.6162,404.4219 917.0225,404.1563 Q916.4287,403.875 915.8037,403.875 Q914.46,403.875 913.7725,404.9531 Q913.085,406.0156 913.085,408.1094 Q913.085,410.2031 913.7725,411.2813 Q914.46,412.3438 915.8037,412.3438 Q916.4287,412.3438 917.0225,412.0781 Q917.6162,411.7969 918.2412,411.2188 L918.2412,413.9375 Z " fill="#000000"/><text fill="#000000" font-family="sans-serif" font-size="14" lengthAdjust="spacing" textLength="68.5918" x="935.7725" y="413.1436">Comment</text><line style="stroke:#181818;stroke-width:0.5;" x1="845.5" x2="1062.1367" y1="424.2969" y2="424.2969"/><g data-visibility-modifier="PRIVATE_FIELD"><rect fill="none" height="6" style="stroke:#C82930;stroke-width:1;" width="6" x="852.5" y="434.9453"/></g><text fill="#000000" font-family="sans-serif" font-size="14" lengthAdjust="spacing" textLength="73.6436" x="864.5" y="441.292">post : Post</text><g data-visibility-modifier="PRIVATE_FIELD"><rect fill="none" height="6" style="stroke:#C82930;stroke-width:1;" width="6" x="852.5" y="451.2422"/></g><text fill="#000000" font-family="sans-serif" font-size="14" lengthAdjust="spacing" textLength="91.6631" x="864.5" y="457.5889">author : User</text><g data-visibility-modifier="PRIVATE_FIELD"><rect fill="none" height="6" style="stroke:#C82930;stroke-width:1;" width="6" x="852.5" y="467.5391"/></g><text fill="#000000" font-family="sans-serif" font-size="14" lengthAdjust="spacing" textLength="108.999" x="864.5" y="473.8857">content : String</text><g data-visibility-modifier="PRIVATE_FIELD"><rect fill="none" height="6" style="stroke:#C82930;stroke-width:1;" width="6" x="852.5" y="483.8359"/></g><text fill="#000000" font-family="sans-serif" font-size="14" lengthAdjust="spacing" textLength="128.4063" x="864.5" y="490.1826">parent : Comment</text><g data-visibility-modifier="PRIVATE_FIELD"><rect fill="none" height="6" style="stroke:#C82930;stroke-width:1;" width="6" x="852.5" y="500.1328"/></g><text fill="#000000" font-family="sans-serif" font-size="14" lengthAdjust="spacing" textLength="177.085" x="864.5" y="506.4795">replies : List&lt;Comment&gt;</text><g data-visibility-modifier="PRIVATE_FIELD"><rect fill="none" height="6" style="stroke:#C82930;stroke-width:1;" width="6" x="852.5" y="516.4297"/></g><text fill="#000000" font-family="sans-serif" font-size="14" lengthAdjust="spacing" textLength="190.3467" x="864.5" y="522.7764">likes : List&lt;CommentLike&gt;</text><line style="stroke:#181818;stroke-width:1;" x1="845.5" x2="1062.1367" y1="530.0781" y2="530.0781"/><g data-visibility-modifier="PUBLIC_METHOD"><ellipse cx="855.5" cy="543.7266" fill="#84BE84" rx="3" ry="3" style="stroke:#038048;stroke-width:1;"/></g><text fill="#000000" font-family="sans-serif" font-size="14" lengthAdjust="spacing" textLength="131.0996" x="864.5" y="547.0732">isReply() : boolean</text><g data-visibility-modifier="PUBLIC_METHOD"><ellipse cx="855.5" cy="560.0234" fill="#84BE84" rx="3" ry="3" style="stroke:#038048;stroke-width:1;"/></g><text fill="#000000" font-family="sans-serif" font-size="14" lengthAdjust="spacing" textLength="192.6367" x="864.5" y="563.3701">isRootComment() : boolean</text></g><!--class PostLike--><g class="entity" data-qualified-name="PostLike" data-source-line="48" id="ent0007"><rect fill="#F1F1F1" height="113.1875" rx="2.5" ry="2.5" style="stroke:#181818;stroke-width:0.5;" width="280.8438" x="1243.5" y="424.7969"/><ellipse cx="1350.5713" cy="440.7969" fill="#ADD1B2" rx="11" ry="11" style="stroke:#181818;stroke-width:1;"/><path d="M1353.54,446.4375 Q1352.9619,446.7344 1352.3213,446.875 Q1351.6807,447.0313 1350.9775,447.0313 Q1348.4775,447.0313 1347.1494,445.3906 Q1345.8369,443.7344 1345.8369,440.6094 Q1345.8369,437.4844 1347.1494,435.8281 Q1348.4775,434.1719 1350.9775,434.1719 Q1351.6807,434.1719 1352.3213,434.3281 Q1352.9775,434.4844 1353.54,434.7813 L1353.54,437.5 Q1352.915,436.9219 1352.3213,436.6563 Q1351.7275,436.375 1351.1025,436.375 Q1349.7588,436.375 1349.0713,437.4531 Q1348.3838,438.5156 1348.3838,440.6094 Q1348.3838,442.7031 1349.0713,443.7813 Q1349.7588,444.8438 1351.1025,444.8438 Q1351.7275,444.8438 1352.3213,444.5781 Q1352.915,444.2969 1353.54,443.7188 L1353.54,446.4375 Z " fill="#000000"/><text fill="#000000" font-family="sans-serif" font-size="14" lengthAdjust="spacing" textLength="58.2012" x="1371.0713" y="445.6436">PostLike</text><line style="stroke:#181818;stroke-width:0.5;" x1="1244.5" x2="1523.3438" y1="456.7969" y2="456.7969"/><g data-visibility-modifier="PRIVATE_FIELD"><rect fill="none" height="6" style="stroke:#C82930;stroke-width:1;" width="6" x="1251.5" y="467.4453"/></g><text fill="#000000" font-family="sans-serif" font-size="14" lengthAdjust="spacing" textLength="76.0635" x="1263.5" y="473.792">user : User</text><g data-visibility-modifier="PRIVATE_FIELD"><rect fill="none" height="6" style="stroke:#C82930;stroke-width:1;" width="6" x="1251.5" y="483.7422"/></g><text fill="#000000" font-family="sans-serif" font-size="14" lengthAdjust="spacing" textLength="73.6436" x="1263.5" y="490.0889">post : Post</text><g data-visibility-modifier="PRIVATE_FIELD"><rect fill="none" height="6" style="stroke:#C82930;stroke-width:1;" width="6" x="1251.5" y="500.0391"/></g><text fill="#000000" font-family="sans-serif" font-size="14" lengthAdjust="spacing" textLength="124.3252" x="1263.5" y="506.3857">isActive : boolean</text><line style="stroke:#181818;stroke-width:1;" x1="1244.5" x2="1523.3438" y1="513.6875" y2="513.6875"/><g data-visibility-modifier="PUBLIC_METHOD"><ellipse cx="1254.5" cy="527.3359" fill="#84BE84" rx="3" ry="3" style="stroke:#038048;stroke-width:1;"/></g><text fill="#000000" font-family="sans-serif" font-size="14" lengthAdjust="spacing" textLength="254.8438" x="1263.5" y="530.6826">of(user : User, post : Post) : PostLike</text></g><!--class CommentLike--><g class="entity" data-qualified-name="CommentLike" data-source-line="56" id="ent0008"><rect fill="#F1F1F1" height="113.1875" rx="2.5" ry="2.5" style="stroke:#181818;stroke-width:0.5;" width="394.7236" x="1416.5" y="202.2969"/><ellipse cx="1561.1108" cy="218.2969" fill="#ADD1B2" rx="11" ry="11" style="stroke:#181818;stroke-width:1;"/><path d="M1564.0796,223.9375 Q1563.5015,224.2344 1562.8608,224.375 Q1562.2202,224.5313 1561.5171,224.5313 Q1559.0171,224.5313 1557.689,222.8906 Q1556.3765,221.2344 1556.3765,218.1094 Q1556.3765,214.9844 1557.689,213.3281 Q1559.0171,211.6719 1561.5171,211.6719 Q1562.2202,211.6719 1562.8608,211.8281 Q1563.5171,211.9844 1564.0796,212.2813 L1564.0796,215 Q1563.4546,214.4219 1562.8608,214.1563 Q1562.2671,213.875 1561.6421,213.875 Q1560.2983,213.875 1559.6108,214.9531 Q1558.9233,216.0156 1558.9233,218.1094 Q1558.9233,220.2031 1559.6108,221.2813 Q1560.2983,222.3438 1561.6421,222.3438 Q1562.2671,222.3438 1562.8608,222.0781 Q1563.4546,221.7969 1564.0796,221.2188 L1564.0796,223.9375 Z " fill="#000000"/><text fill="#000000" font-family="sans-serif" font-size="14" lengthAdjust="spacing" textLength="97.002" x="1581.6108" y="223.1436">CommentLike</text><line style="stroke:#181818;stroke-width:0.5;" x1="1417.5" x2="1810.2236" y1="234.2969" y2="234.2969"/><g data-visibility-modifier="PRIVATE_FIELD"><rect fill="none" height="6" style="stroke:#C82930;stroke-width:1;" width="6" x="1424.5" y="244.9453"/></g><text fill="#000000" font-family="sans-serif" font-size="14" lengthAdjust="spacing" textLength="76.0635" x="1436.5" y="251.292">user : User</text><g data-visibility-modifier="PRIVATE_FIELD"><rect fill="none" height="6" style="stroke:#C82930;stroke-width:1;" width="6" x="1424.5" y="261.2422"/></g><text fill="#000000" font-family="sans-serif" font-size="14" lengthAdjust="spacing" textLength="148.7227" x="1436.5" y="267.5889">comment : Comment</text><g data-visibility-modifier="PRIVATE_FIELD"><rect fill="none" height="6" style="stroke:#C82930;stroke-width:1;" width="6" x="1424.5" y="277.5391"/></g><text fill="#000000" font-family="sans-serif" font-size="14" lengthAdjust="spacing" textLength="124.3252" x="1436.5" y="283.8857">isActive : boolean</text><line style="stroke:#181818;stroke-width:1;" x1="1417.5" x2="1810.2236" y1="291.1875" y2="291.1875"/><g data-visibility-modifier="PUBLIC_METHOD"><ellipse cx="1427.5" cy="304.8359" fill="#84BE84" rx="3" ry="3" style="stroke:#038048;stroke-width:1;"/></g><text fill="#000000" font-family="sans-serif" font-size="14" lengthAdjust="spacing" textLength="368.7236" x="1436.5" y="308.1826">of(user : User, comment : Comment) : CommentLike</text></g><!--class PostStatus--><g class="entity" data-qualified-name="PostStatus" data-source-line="64" id="ent0009"><rect fill="#F1F1F1" height="113.1875" rx="2.5" ry="2.5" style="stroke:#181818;stroke-width:0.5;" width="106.4023" x="901" y="902.7969"/><ellipse cx="916" cy="918.7969" fill="#EB937F" rx="11" ry="11" style="stroke:#181818;stroke-width:1;"/><path d="M920.1094,924.7969 L912.3906,924.7969 L912.3906,912.4063 L920.1094,912.4063 L920.1094,914.5625 L914.8438,914.5625 L914.8438,917.2344 L919.6094,917.2344 L919.6094,919.3906 L914.8438,919.3906 L914.8438,922.6406 L920.1094,922.6406 L920.1094,924.7969 Z " fill="#000000"/><text fill="#000000" font-family="sans-serif" font-size="14" lengthAdjust="spacing" textLength="74.4023" x="930" y="923.6436">PostStatus</text><line style="stroke:#181818;stroke-width:0.5;" x1="902" x2="1006.4023" y1="934.7969" y2="934.7969"/><text fill="#000000" font-family="sans-serif" font-size="14" lengthAdjust="spacing" textLength="46.6895" x="907" y="951.792">DRAFT</text><text fill="#000000" font-family="sans-serif" font-size="14" lengthAdjust="spacing" textLength="63.9912" x="907" y="968.0889">PENDING</text><text fill="#000000" font-family="sans-serif" font-size="14" lengthAdjust="spacing" textLength="65.6318" x="907" y="984.3857">APPROVE</text><text fill="#000000" font-family="sans-serif" font-size="14" lengthAdjust="spacing" textLength="53.8535" x="907" y="1000.6826">DENIED</text><line style="stroke:#181818;stroke-width:0.5;" x1="902" x2="1006.4023" y1="1007.9844" y2="1007.9844"/></g><g class="entity" data-qualified-name="GMN28" data-source-line="93" id="ent0029"><path d="M454.5,931.7969 L454.5,955.2969 L419.04,959.2969 L454.5,963.2969 L454.5,987.1953 A0,0 0 0 0 454.5,987.1953 L751.6611,987.1953 A0,0 0 0 0 751.6611,987.1953 L751.6611,941.7969 L741.6611,931.7969 L454.5,931.7969 A0,0 0 0 0 454.5,931.7969" fill="#FEFFDD" style="stroke:#181818;stroke-width:0.5;"/><path d="M741.6611,931.7969 L741.6611,941.7969 L751.6611,941.7969 L741.6611,931.7969" fill="#FEFFDD" style="stroke:#181818;stroke-width:0.5;"/><text fill="#000000" font-family="sans-serif" font-size="13" lengthAdjust="spacing" textLength="258.6035" x="460.5" y="948.8638">ApprovalInfo l&#224; embeddable trong Post,</text><text fill="#000000" font-family="sans-serif" font-size="13" lengthAdjust="spacing" textLength="276.1611" x="460.5" y="963.9966">l&#432;u th&#244;ng tin ng&#432;&#7901;i duy&#7879;t, th&#7901;i &#273;i&#7875;m duy&#7879;t</text><text fill="#000000" font-family="sans-serif" font-size="13" lengthAdjust="spacing" textLength="185.1548" x="460.5" y="979.1294">v&#224; ghi ch&#250;/l&#253; do ki&#7875;m duy&#7879;t.</text></g><g class="entity" data-qualified-name="GMN31" data-source-line="99" id="ent0032"><path d="M1224,708.2969 L1224,748.5625 A0,0 0 0 0 1224,748.5625 L1544.3618,748.5625 A0,0 0 0 0 1544.3618,748.5625 L1544.3618,718.2969 L1534.3618,708.2969 L1388,708.2969 L1384,537.8869 L1380,708.2969 L1224,708.2969 A0,0 0 0 0 1224,708.2969" fill="#FEFFDD" style="stroke:#181818;stroke-width:0.5;"/><path d="M1534.3618,708.2969 L1534.3618,718.2969 L1544.3618,718.2969 L1534.3618,708.2969" fill="#FEFFDD" style="stroke:#181818;stroke-width:0.5;"/><text fill="#000000" font-family="sans-serif" font-size="13" lengthAdjust="spacing" textLength="299.3618" x="1230" y="725.3638">M&#7895;i user ch&#7881; c&#243; m&#7897;t b&#7843;n ghi like cho m&#7895;i post.</text><text fill="#000000" font-family="sans-serif" font-size="13" lengthAdjust="spacing" textLength="258.248" x="1230" y="740.4966">Tr&#7841;ng th&#225;i isActive d&#249;ng &#273;&#7875; b&#7853;t/t&#7855;t like.</text></g><g class="entity" data-qualified-name="GMN34" data-source-line="104" id="ent0035"><path d="M1667,461.2969 L1667,501.5625 A0,0 0 0 0 1667,501.5625 L2021.0488,501.5625 A0,0 0 0 0 2021.0488,501.5625 L2021.0488,471.2969 L2011.0488,461.2969 L1828.1,461.2969 L1672.04,315.4369 L1820.1,461.2969 L1667,461.2969 A0,0 0 0 0 1667,461.2969" fill="#FEFFDD" style="stroke:#181818;stroke-width:0.5;"/><path d="M2011.0488,461.2969 L2011.0488,471.2969 L2021.0488,471.2969 L2011.0488,461.2969" fill="#FEFFDD" style="stroke:#181818;stroke-width:0.5;"/><text fill="#000000" font-family="sans-serif" font-size="13" lengthAdjust="spacing" textLength="333.0488" x="1673" y="478.3638">M&#7895;i user ch&#7881; c&#243; m&#7897;t b&#7843;n ghi like cho m&#7895;i comment.</text><text fill="#000000" font-family="sans-serif" font-size="13" lengthAdjust="spacing" textLength="258.248" x="1673" y="493.4966">Tr&#7841;ng th&#225;i isActive d&#249;ng &#273;&#7875; b&#7853;t/t&#7855;t like.</text></g><!--link SoftDeleteModel to BaseModel--><g class="link" data-entity-1="ent0002" data-entity-2="ent0001" data-link-type="extension" data-source-line="71" id="lnk11"><path codeLine="71" d="M1032.29,92.7969 C1115.5,92.7969 1180.72,92.7969 1263.94,92.7969" fill="none" id="SoftDeleteModel-to-BaseModel" style="stroke:#181818;stroke-width:1;"/><polygon fill="none" points="1281.94,92.7969,1263.94,86.7969,1263.94,98.7969,1281.94,92.7969" style="stroke:#181818;stroke-width:1;stroke-linejoin:miter;stroke-miterlimit:10;"/></g><!--reverse link SoftDeleteModel to Post--><g class="link" data-entity-1="ent0002" data-entity-2="ent0004" data-link-type="extension" data-source-line="72" id="lnk12"><path codeLine="72" d="M926.7964,140.7746 C896.9564,193.6746 847.98,289.3769 827,392.2969 C809.47,478.2669 822.85,578.7169 836.9,647.0369" fill="none" id="SoftDeleteModel-backto-Post" style="stroke:#181818;stroke-width:1;"/><polygon fill="none" points="935.64,125.0969,921.5705,137.8268,932.0224,143.7225,935.64,125.0969" style="stroke:#181818;stroke-width:1;stroke-linejoin:miter;stroke-miterlimit:10;"/></g><!--reverse link SoftDeleteModel to Comment--><g class="link" data-entity-1="ent0002" data-entity-2="ent0006" data-link-type="extension" data-source-line="73" id="lnk13"><path codeLine="73" d="M954,143.0969 C954,200.6069 954,306.9769 954,392.1669" fill="none" id="SoftDeleteModel-backto-Comment" style="stroke:#181818;stroke-width:1;"/><polygon fill="none" points="954,125.0969,948,143.0969,960,143.0969,954,125.0969" style="stroke:#181818;stroke-width:1;stroke-linejoin:miter;stroke-miterlimit:10;"/></g><!--reverse link BaseModel to PostLike--><g class="link" data-entity-1="ent0001" data-entity-2="ent0007" data-link-type="extension" data-source-line="74" id="lnk14"><path codeLine="74" d="M1366.5751,159.5504 C1370.4651,231.2504 1376.83,348.3869 1380.97,424.5069" fill="none" id="BaseModel-backto-PostLike" style="stroke:#181818;stroke-width:1;"/><polygon fill="none" points="1365.6,141.5769,1360.5839,159.8755,1372.5663,159.2254,1365.6,141.5769" style="stroke:#181818;stroke-width:1;stroke-linejoin:miter;stroke-miterlimit:10;"/></g><!--reverse link BaseModel to CommentLike--><g class="link" data-entity-1="ent0001" data-entity-2="ent0008" data-link-type="extension" data-source-line="75" id="lnk15"><path codeLine="75" d="M1451.0079,151.3036 C1480.0979,170.3136 1498.72,182.4769 1528.92,202.2069" fill="none" id="BaseModel-backto-CommentLike" style="stroke:#181818;stroke-width:1;"/><polygon fill="none" points="1435.94,141.4569,1447.7257,156.3262,1454.2902,146.281,1435.94,141.4569" style="stroke:#181818;stroke-width:1;stroke-linejoin:miter;stroke-miterlimit:10;"/></g><!--link Post to PostStatus--><g class="link" data-entity-1="ent0004" data-entity-2="ent0009" data-link-type="dependency" data-source-line="77" id="lnk16"><path codeLine="77" d="M890.93,809.3869 C903.98,840.2169 916.6397,870.1029 928.5097,898.1229" fill="none" id="Post-to-PostStatus" style="stroke:#181818;stroke-width:1;"/><polygon fill="#181818" points="930.46,902.7269,930.6325,892.8795,928.5097,898.1229,923.2662,896.0001,930.46,902.7269" style="stroke:#181818;stroke-width:1;stroke-linejoin:miter;stroke-miterlimit:10;"/></g><!--reverse link Post to ApprovalInfo--><g class="link" data-entity-1="ent0004" data-entity-2="ent0005" data-link-type="composition" data-source-line="78" id="lnk17"><path codeLine="78" d="M732.0436,773.7275 C641.4936,805.9275 523.74,847.7969 415.61,886.2469" fill="none" id="Post-backto-ApprovalInfo" style="stroke:#181818;stroke-width:1;"/><polygon fill="#181818" points="743.35,769.7069,736.3566,767.9484,732.0436,773.7275,739.037,775.486,743.35,769.7069" style="stroke:#181818;stroke-width:1;stroke-linejoin:miter;stroke-miterlimit:10;"/><polygon fill="#000000" points="535.289,849.5385,544.7959,849.2771,542.8267,843.739,535.289,849.5385" style="stroke:#000000;stroke-width:1;stroke-linejoin:miter;stroke-miterlimit:10;"/><text fill="#000000" font-family="sans-serif" font-size="13" lengthAdjust="spacing" textLength="51.9365" x="549" y="852.3638">embeds</text></g><!--link ApprovalInfo to User--><g class="link" data-entity-1="ent0005" data-entity-2="ent0003" data-link-type="dependency" data-source-line="79" id="lnk18"><path codeLine="79" d="M419.26,1027.8069 C425.22,1029.3669 431.15,1030.8669 437,1032.2969 C659.97,1086.6169 930.2588,1118.4613 1022.8988,1128.4413" fill="none" id="ApprovalInfo-to-User" style="stroke:#181818;stroke-width:1;"/><polygon fill="#181818" points="1027.87,1128.9769,1019.3502,1124.0359,1022.8988,1128.4413,1018.4933,1131.9899,1027.87,1128.9769" style="stroke:#181818;stroke-width:1;stroke-linejoin:miter;stroke-miterlimit:10;"/><text fill="#000000" font-family="sans-serif" font-size="13" lengthAdjust="spacing" textLength="78.3237" x="659" y="1075.3638">approvedBy</text><text fill="#000000" font-family="sans-serif" font-size="13" lengthAdjust="spacing" textLength="24.8066" x="995.2702" y="1141.6829">0..1</text></g><!--link Post to User--><g class="link" data-entity-1="ent0004" data-entity-2="ent0003" data-link-type="dependency" data-source-line="81" id="lnk19"><path codeLine="81" d="M827.79,809.5969 C809.47,874.8069 796.51,966.4269 839,1032.2969 C881.12,1097.5869 972.379,1119.941 1022.829,1127.761" fill="none" id="Post-to-User" style="stroke:#181818;stroke-width:1;"/><polygon fill="#181818" points="1027.77,1128.5269,1019.4889,1123.1955,1022.829,1127.761,1018.2635,1131.1011,1027.77,1128.5269" style="stroke:#181818;stroke-width:1;stroke-linejoin:miter;stroke-miterlimit:10;"/><text fill="#000000" font-family="sans-serif" font-size="13" lengthAdjust="spacing" textLength="42.8403" x="840" y="963.8638">author</text><text fill="#000000" font-family="sans-serif" font-size="13" lengthAdjust="spacing" textLength="23.0356" x="801.1785" y="829.575">0..*</text><text fill="#000000" font-family="sans-serif" font-size="13" lengthAdjust="spacing" textLength="8.271" x="1011.8842" y="1122.9242">1</text></g><!--link Comment to Post--><g class="link" data-entity-1="ent0006" data-entity-2="ent0004" data-link-type="dependency" data-source-line="82" id="lnk20"><path codeLine="82" d="M919.12,570.3969 C909.23,595.3669 900.3712,617.7582 890.6712,642.2482" fill="none" id="Comment-to-Post" style="stroke:#181818;stroke-width:1;"/><polygon fill="#181818" points="888.83,646.8969,895.8631,640.0023,890.6712,642.2482,888.4253,637.0563,888.83,646.8969" style="stroke:#181818;stroke-width:1;stroke-linejoin:miter;stroke-miterlimit:10;"/><polygon fill="#000000" points="909.1593,613.5121,915.2217,606.1842,909.7566,604.0204,909.1593,613.5121" style="stroke:#000000;stroke-width:1;stroke-linejoin:miter;stroke-miterlimit:10;"/><text fill="#000000" font-family="sans-serif" font-size="13" lengthAdjust="spacing" textLength="68.2627" x="920" y="613.3638">belongs to</text><text fill="#000000" font-family="sans-serif" font-size="13" lengthAdjust="spacing" textLength="23.0356" x="892.1514" y="590.7549">0..*</text><text fill="#000000" font-family="sans-serif" font-size="13" lengthAdjust="spacing" textLength="8.271" x="883.2455" y="636.3263">1</text></g><!--link Comment to User--><g class="link" data-entity-1="ent0006" data-entity-2="ent0003" data-link-type="dependency" data-source-line="83" id="lnk21"><path codeLine="83" d="M988.65,570.5369 C991.8,580.4769 994.68,590.5369 997,600.2969 C1042.98,793.4669 1055.8733,1029.4611 1058.9633,1104.1511" fill="none" id="Comment-to-User" style="stroke:#181818;stroke-width:1;"/><polygon fill="#181818" points="1059.17,1109.1469,1062.7946,1099.9892,1058.9633,1104.1511,1054.8014,1100.3199,1059.17,1109.1469" style="stroke:#181818;stroke-width:1;stroke-linejoin:miter;stroke-miterlimit:10;"/><text fill="#000000" font-family="sans-serif" font-size="13" lengthAdjust="spacing" textLength="42.8403" x="1041" y="852.3638">author</text><text fill="#000000" font-family="sans-serif" font-size="13" lengthAdjust="spacing" textLength="23.0356" x="967.5836" y="590.605">0..*</text><text fill="#000000" font-family="sans-serif" font-size="13" lengthAdjust="spacing" textLength="8.271" x="1049.9785" y="1098.1205">1</text></g><!--link Comment to Comment--><g class="link" data-entity-1="ent0006" data-entity-2="ent0006" data-link-type="dependency" data-source-line="84" id="lnk22"><path codeLine="84" d="M1063.64,470.0869 C1084.09,471.4669 1098.5,475.2069 1098.5,481.2969 C1098.5,487.3869 1089.0787,490.7902 1068.6287,492.1702" fill="none" id="Comment-to-Comment" style="stroke:#181818;stroke-width:1;"/><polygon fill="#181818" points="1063.64,492.5069,1072.8889,495.8918,1068.6287,492.1702,1072.3503,487.91,1063.64,492.5069" style="stroke:#181818;stroke-width:1;stroke-linejoin:miter;stroke-miterlimit:10;"/><text fill="#000000" font-family="sans-serif" font-size="13" lengthAdjust="spacing" textLength="42.8975" x="1104.5" y="485.8638">parent</text><text fill="#000000" font-family="sans-serif" font-size="13" lengthAdjust="spacing" textLength="23.0356" x="1071.0341" y="481.9203">0..*</text><text fill="#000000" font-family="sans-serif" font-size="13" lengthAdjust="spacing" textLength="24.8066" x="1071.0881" y="505.7065">0..1</text></g><!--reverse link Comment to Comment--><g class="link" data-entity-1="ent0006" data-entity-2="ent0006" data-link-type="aggregation" data-source-line="85" id="lnk23"><path codeLine="85" d="M1075.6531,457.4693 C1123.0231,455.8593 1152.5,464.0669 1152.5,481.2969 C1152.5,498.5269 1111.03,506.3269 1063.66,504.7169" fill="none" id="Comment-backto-Comment" style="stroke:#181818;stroke-width:1;"/><polygon fill="none" points="1063.66,457.8769,1069.7924,461.6708,1075.6531,457.4693,1069.5207,453.6754,1063.66,457.8769" style="stroke:#181818;stroke-width:1;stroke-linejoin:miter;stroke-miterlimit:10;"/><text fill="#000000" font-family="sans-serif" font-size="13" lengthAdjust="spacing" textLength="43.5894" x="1158.5" y="485.8638">replies</text><text fill="#000000" font-family="sans-serif" font-size="13" lengthAdjust="spacing" textLength="8.271" x="1070.9617" y="452.9552">1</text><text fill="#000000" font-family="sans-serif" font-size="13" lengthAdjust="spacing" textLength="23.0356" x="1071.0553" y="518.6606">0..*</text></g><!--link PostLike to User--><g class="link" data-entity-1="ent0007" data-entity-2="ent0003" data-link-type="dependency" data-source-line="87" id="lnk24"><path codeLine="87" d="M1307.25,537.9469 C1272.16,566.9769 1232.76,605.1869 1207,647.2969 C1102.84,817.5969 1152.7,891.8569 1084,1079.2969 C1080.35,1089.2569 1077.7706,1095.4242 1073.5006,1104.5942" fill="none" id="PostLike-to-User" style="stroke:#181818;stroke-width:1;"/><polygon fill="#181818" points="1071.39,1109.1269,1078.8153,1102.6566,1073.5006,1104.5942,1071.563,1099.2795,1071.39,1109.1269" style="stroke:#181818;stroke-width:1;stroke-linejoin:miter;stroke-miterlimit:10;"/><text fill="#000000" font-family="sans-serif" font-size="13" lengthAdjust="spacing" textLength="28.355" x="1136" y="852.3638">user</text><text fill="#000000" font-family="sans-serif" font-size="13" lengthAdjust="spacing" textLength="23.0356" x="1272.9553" y="558.2295">0..*</text><text fill="#000000" font-family="sans-serif" font-size="13" lengthAdjust="spacing" textLength="8.271" x="1065.3299" y="1098.0953">1</text></g><!--link PostLike to Post--><g class="link" data-entity-1="ent0007" data-entity-2="ent0004" data-link-type="dependency" data-source-line="88" id="lnk25"><path codeLine="88" d="M1293.13,537.8469 C1271.62,549.6069 1248.4,561.1969 1226,570.2969 C1178.66,589.5369 1162.81,582.2569 1115,600.2969 C1066.54,618.5769 1019.4367,640.6302 975.2567,663.1002" fill="none" id="PostLike-to-Post" style="stroke:#181818;stroke-width:1;"/><polygon fill="#181818" points="970.8,665.3669,980.6354,664.8522,975.2567,663.1002,977.0087,657.7215,970.8,665.3669" style="stroke:#181818;stroke-width:1;stroke-linejoin:miter;stroke-miterlimit:10;"/><text fill="#000000" font-family="sans-serif" font-size="13" lengthAdjust="spacing" textLength="28.0757" x="1116" y="613.3638">post</text><text fill="#000000" font-family="sans-serif" font-size="13" lengthAdjust="spacing" textLength="23.0356" x="1257.0261" y="558.1167">0..*</text><text fill="#000000" font-family="sans-serif" font-size="13" lengthAdjust="spacing" textLength="8.271" x="978.3643" y="657.9236">1</text></g><!--link CommentLike to User--><g class="link" data-entity-1="ent0008" data-entity-2="ent0003" data-link-type="dependency" data-source-line="89" id="lnk26"><path codeLine="89" d="M1614,315.5269 C1614,360.1069 1614,424.2169 1614,480.2969 C1614,480.2969 1614,480.2969 1614,960.2969 C1614,1070.3269 1215.3963,1117.3404 1097.1563,1128.9004" fill="none" id="CommentLike-to-User" style="stroke:#181818;stroke-width:1;"/><polygon fill="#181818" points="1092.18,1129.3869,1101.5265,1132.4922,1097.1563,1128.9004,1100.7481,1124.5301,1092.18,1129.3869" style="stroke:#181818;stroke-width:1;stroke-linejoin:miter;stroke-miterlimit:10;"/><text fill="#000000" font-family="sans-serif" font-size="13" lengthAdjust="spacing" textLength="28.355" x="1615" y="732.8638">user</text><text fill="#000000" font-family="sans-serif" font-size="13" lengthAdjust="spacing" textLength="23.0356" x="1589.6175" y="335.4185">0..*</text><text fill="#000000" font-family="sans-serif" font-size="13" lengthAdjust="spacing" textLength="8.271" x="1100.1338" y="1123.9724">1</text></g><!--link CommentLike to Comment--><g class="link" data-entity-1="ent0008" data-entity-2="ent0006" data-link-type="dependency" data-source-line="90" id="lnk27"><path codeLine="90" d="M1447.45,315.4369 C1327.16,355.6269 1172.8524,407.1826 1068.2624,442.1226" fill="none" id="CommentLike-to-Comment" style="stroke:#181818;stroke-width:1;"/><polygon fill="#181818" points="1063.52,443.7069,1073.3237,444.6491,1068.2624,442.1226,1070.7889,437.0613,1063.52,443.7069" style="stroke:#181818;stroke-width:1;stroke-linejoin:miter;stroke-miterlimit:10;"/><text fill="#000000" font-family="sans-serif" font-size="13" lengthAdjust="spacing" textLength="61.7627" x="1344" y="358.3638">comment</text><text fill="#000000" font-family="sans-serif" font-size="13" lengthAdjust="spacing" textLength="23.0356" x="1401.6573" y="335.7182">0..*</text><text fill="#000000" font-family="sans-serif" font-size="13" lengthAdjust="spacing" textLength="8.271" x="1071.1684" y="437.7361">1</text></g><?plantuml-src fLKzRzD06DxzAqvbITeuXRMg8gLDYYAr8MfBTyU-9gVQFij-7HH19mR4sAbYGA9YHbI2XKHChle__4zuxtp-Jb81MNptVZptl9y11ZObHzmF7T9tWG6Z0JdX5hKrpRID8207Ha2bWBpL2FwU4MQHFNBCtOcwcpurW5fTGF703S1mGMb2pwffhbFWCtu9FMfJgC1RKhR6wNL0_VGyuW4eBvqO8KovZoxI8f6136wFd87F55kTcDm5wa9LZEz06A1Ke9x9YzBC67rpo4FfOlFCmV0ydyyCU-1USjHq2zV4GfUV7S9SJ923JrwaG8qcEimui_AuYkvvJ598hODvEQvKNijupch8eHfvnYVeAd_9OyovJGrNAHLqmy6I-0Pa6MqHjuZON1Nn3g6E1_D6JPb5USWTaOWiG4zKC4dvXZAkgPXd-8bKeIgnJprRD36sA0jWNoaxIckpgvhk66MTQevE4MQ-8a6euHoKPqb_NUnBWPc56M8ivP3gWMDLJ60pMdamOyGl6mMOLX6XgRxYpLgkdo1YgefKi_YtT6eupVoOyg8kBfbyl1Ihtcdtw5oUHlrXRp1yAS_TqUZqrKK_iUWF1_sUGCXtqVuxtTQhAqIhhXIqqfCahzIa8PTWzJoN5Nan74qk7rtl5FU5b6sZPRUy6wWpfbP0Ebf9BfotdhVRBxPa3j4kdtU5BzJRMubbmKpEY9OEKyLeb3J6c8fT5H3W-EuQqwVn4dg7MN6JcSjDKSanNkMIswaXJCAGBRZwQT53QsrK9ABJjM8tRu3QO9QJKxsgQNAb-Mmo1UpdyiegLSgElYGrj8mn_g60ZvcLx5gQ_NWV4fX6Fr42p2NkvF4-Ndvcn0hdyV83j50fxmytB5w-TrAvDaFCoPGHSnejTkteDx4ukIgPj75WBBbs5TCn1-2Ee9frw4cyl6N9M9lupaTYHZ-84oy_0Hd7Yw-kV4BiF5HpeK1haS-sTkx7Ypj1UXhTiNpShUWN2Xzka8X0-0Qx42--WyJOGAWu6l_2IPNaVsdz0G00?></g></svg>